<svg width="32" height="18" viewBox="0 0 32 16" fill="none" xmlns="http://www.w3.org/2000/svg">
  <path d="M0.139359 12H4.65136C6.90736 12 8.36336 10.672 8.36336 8.576C8.36336 7.168 7.62736 6.144 6.23536 5.664C7.19536 5.152 7.80336 4.288 7.80336 3.072C7.80336 1.184 6.44336 -9.53674e-07 4.37936 -9.53674e-07H0.139359V12ZM4.25136 1.536C5.33936 1.536 6.04336 2.208 6.04336 3.248C6.04336 4.336 5.35536 5.024 4.26736 5.024H1.93136V1.536H4.25136ZM4.58736 6.608C5.78736 6.608 6.55536 7.392 6.55536 8.576C6.55536 9.744 5.78736 10.464 4.60336 10.464H1.93136V6.608H4.58736ZM10.4101 12H12.0581V-9.53674e-07H10.4101V12ZM18.1027 3.904C15.7027 3.904 13.9267 5.648 13.9267 8.016C13.9267 10.4 15.7027 12.144 18.1027 12.144C20.5187 12.144 22.2787 10.4 22.2787 8.016C22.2787 5.648 20.5187 3.904 18.1027 3.904ZM18.1027 5.424C19.5587 5.424 20.5507 6.464 20.5507 8.016C20.5507 9.568 19.5587 10.624 18.1027 10.624C16.6467 10.624 15.6547 9.568 15.6547 8.016C15.6547 6.464 16.6467 5.424 18.1027 5.424ZM23.5205 7.968C23.5205 10.304 25.1685 12.016 27.3925 12.016C28.4485 12.016 29.3605 11.584 30.0005 10.848V12.016C30.0005 13.376 29.1045 14.144 27.6805 14.144C26.4485 14.144 25.7125 13.584 25.5365 12.64L23.8405 12.96C24.0965 14.512 25.4405 15.664 27.6645 15.664C30.1285 15.664 31.6485 14.112 31.6485 11.888V4.048H30.1125L30.0325 5.12C29.3925 4.368 28.4805 3.904 27.3925 3.904C25.1685 3.904 23.5205 5.616 23.5205 7.968ZM25.2485 7.968C25.2485 6.448 26.2085 5.424 27.6325 5.424C29.0405 5.424 30.0005 6.448 30.0005 7.968C30.0005 9.472 29.0405 10.496 27.6325 10.496C26.2085 10.496 25.2485 9.472 25.2485 7.968Z" fill="#FF642D"/>
</svg>
