<svg width="25" height="15" viewBox="0 0 25 15" fill="none" xmlns="http://www.w3.org/2000/svg">
  <path d="M20.7113 7.11255C20.7113 7.56335 20.4859 7.63848 19.9099 7.63848C19.3088 7.63848 19.2086 7.5383 19.1335 7.08751C19.0083 5.93548 18.2319 4.95875 16.9296 4.85858C16.5289 4.83353 16.4037 4.65822 16.4037 4.15734C16.4037 3.6815 16.4788 3.4561 16.8545 3.4561C19.1335 3.43106 20.7113 5.25928 20.7113 7.11255ZM24.0171 7.11255C24.0171 3.65645 21.663 0 16.2784 0H5.55953C5.10873 0 5.0336 0.325575 5.43431 0.576017C6.38599 1.25221 7.76342 1.97849 8.96554 2.45433C9.49147 2.65469 9.36625 3.10548 8.86536 3.10548H0.425466C-0.0253294 3.10548 -0.15055 3.40601 0.200068 3.73159C2.429 5.73512 5.28404 7.63848 8.08899 8.86565C8.61492 9.066 8.4897 9.54184 7.98882 9.54184H4.23219C3.75635 9.54184 3.65617 9.79228 4.00679 10.1179C6.13555 11.6956 10.8188 14.3754 16.3035 14.3754C21.7381 14.4004 24.0171 10.3182 24.0171 7.11255ZM16.8795 12.0212C14.1998 12.0212 11.9708 9.84237 11.9708 7.11255C11.9708 4.43282 14.1998 2.27902 16.8795 2.27902C19.6344 2.27902 21.7882 4.43282 21.7882 7.11255C21.7631 9.81733 19.6344 12.0212 16.8795 12.0212Z" fill="#FF622D"/>
</svg>
