<svg width="19" height="20" viewBox="0 0 19 20" fill="none" xmlns="http://www.w3.org/2000/svg">
<path fill-rule="evenodd" clip-rule="evenodd" d="M1.71836 0.986328C0.807089 0.986328 0.0683594 1.72506 0.0683594 2.63633V13.3633C0.0683594 14.2745 0.807087 15.0133 1.71836 15.0133H4.34125C4.34119 15.0089 4.34116 15.0045 4.34116 15.0001V13.7133H1.71836C1.52506 13.7133 1.36836 13.5566 1.36836 13.3633V2.63633C1.36836 2.44303 1.52506 2.28633 1.71836 2.28633H11.3074C11.5007 2.28633 11.6574 2.44303 11.6574 2.63633V4.0001H12.9574V2.63633C12.9574 1.72506 12.2187 0.986328 11.3074 0.986328H1.71836Z" fill="currentColor"/>
<rect x="5.64844" y="5.64893" width="12" height="12.9962" rx="1" stroke="currentColor" stroke-width="1.3" stroke-linecap="round" stroke-linejoin="round"/>
<path d="M11.6992 9V15" stroke="currentColor" stroke-width="1.3" stroke-linecap="round" stroke-linejoin="round"/>
<path d="M14.6992 12L8.69922 12" stroke="currentColor" stroke-width="1.3" stroke-linecap="round" stroke-linejoin="round"/>
</svg>
