<svg viewBox="0 0 14 14" xmlns="http://www.w3.org/2000/svg">
  <path d="M10.4471 0.00308118C10.3299 0.0171519 10.218 0.0720921 10.1353 0.156214L1.03033 9.2567C0.96075 9.32516 0.910859 9.41339 0.888062 9.50827L0.012588 13.3585C-0.0268578 13.5308 0.0281364 13.7218 0.15323 13.8468C0.278324 13.9719 0.469379 14.0268 0.641835 13.9874L4.49392 13.1124C4.59078 13.0905 4.68112 13.0406 4.75109 12.9702L13.856 3.86969C14.048 3.6756 14.048 3.32546 13.856 3.13137L10.8794 0.156214C10.7683 0.043637 10.6044 -0.0144469 10.4471 0.00308118ZM10.5073 1.26643L12.7398 3.50327L11.733 4.50957L9.50053 2.2782L10.5073 1.26643ZM8.75638 3.01652L10.9888 5.25336L4.55411 11.685L2.32165 9.45358L8.75638 3.01652ZM1.76901 10.3833L3.62392 12.2373L1.22731 12.7788L1.76901 10.3833Z" fill="currentColor"/>
</svg>
