<svg width="18" height="14" viewBox="0 0 18 14" fill="none" xmlns="http://www.w3.org/2000/svg">
<path fill-rule="evenodd" clip-rule="evenodd" d="M0.52537 1.27519L7.63397 6.8041L9 7.86657L10.366 6.8041L17.4746 1.27519C17.3726 0.83116 16.975 0.5 16.5 0.5H1.5C1.02501 0.5 0.627374 0.83116 0.52537 1.27519ZM17.5 2.52232L11.4829 7.20228L17.5 11.9664V2.52232ZM17.3077 13.0896L10.6702 7.83435L9.30697 8.89468C9.12642 9.03511 8.87358 9.03511 8.69303 8.89468L7.32975 7.83435L0.692254 13.0896C0.874163 13.3384 1.16821 13.5 1.5 13.5H16.5C16.8318 13.5 17.1258 13.3384 17.3077 13.0896ZM0.5 11.9664L6.5171 7.20228L0.5 2.52232V11.9664Z" fill="currentColor"/>
</svg>
