<svg viewBox="0 0 501 360" fill="none" xmlns="http://www.w3.org/2000/svg">
  <path d="M428.221 273.817H439.744V74.953C439.744 69.7147 435.495 65.4653 430.25 65.4653H67.397C62.1523 65.4653 57.903 69.7147 57.903 74.953V273.817H69.426" fill="#F6F7F8"/>
  <path fill-rule="evenodd" clip-rule="evenodd" d="M430.249 66.2717C435.049 66.2717 438.937 70.1603 438.937 74.9528V273.01H428.22V274.623H440.55V74.9528C440.55 69.2688 435.939 64.6587 430.249 64.6587H67.3962C61.7065 64.6587 57.0957 69.2688 57.0957 74.9528V274.623H69.4252V273.01H58.7086V74.9528C58.7086 70.1603 62.5966 66.2717 67.3962 66.2717H430.249Z" fill="#171A22"/>
  <path d="M69.4255 84.4023V273.817H428.221V84.4023C428.221 80.3061 424.897 76.9883 420.8 76.9883H76.8395C72.7433 76.9883 69.4255 80.3061 69.4255 84.4023Z" fill="currentColor"/>
  <path d="M57.903 273.817V307.908C57.903 313.153 62.1523 317.402 67.397 317.402H430.25C435.495 317.402 439.744 313.153 439.744 307.908V273.817H57.903Z" fill="#F6F7F8"/>
  <path fill-rule="evenodd" clip-rule="evenodd" d="M440.55 273.011H57.0957V307.908C57.0957 313.598 61.7061 318.208 67.3962 318.208H430.249C435.939 318.208 440.55 313.598 440.55 307.908V273.011ZM438.937 274.624V307.908C438.937 312.707 435.049 316.595 430.249 316.595H67.3962C62.597 316.595 58.7086 312.707 58.7086 307.908V274.624H438.937Z" fill="#171A22"/>
  <path d="M141.965 70.3909C140.746 68.4194 139.215 66.4797 137.301 64.706C135.265 62.8238 133.217 60.9671 130.487 60.4566C110.025 56.6412 111.607 49.7312 108.296 48.4232C107.058 47.9319 105.699 48.6465 105.284 49.9162C102.808 57.5727 116.89 69.185 116.89 69.185L109.744 62.0517" fill="#F6F7F8"/>
  <path fill-rule="evenodd" clip-rule="evenodd" d="M106.05 50.1663C106.335 49.2951 107.234 48.8701 107.997 49.1731L107.998 49.1736C108.574 49.4009 108.971 49.8725 109.625 50.788C109.672 50.8528 109.719 50.9193 109.767 50.9872C110.377 51.8439 111.154 52.9364 112.413 54.0937C115.141 56.6016 120.024 59.3267 130.338 61.2498C132.804 61.7109 134.689 63.39 136.752 65.2981C138.608 67.018 140.094 68.8998 141.278 70.8153C141.512 71.1942 142.009 71.3114 142.388 71.0773C142.767 70.8431 142.884 70.3461 142.65 69.9672C141.397 67.9397 139.82 65.9424 137.848 64.1148L137.847 64.1142C135.84 62.2581 133.629 60.2241 130.634 59.6642C120.485 57.7719 115.928 55.1341 113.504 52.9062C112.374 51.8667 111.683 50.8972 111.075 50.0434C111.029 49.9783 110.983 49.9138 110.938 49.8501C110.318 48.9828 109.671 48.1002 108.591 47.6735L108.295 48.4235L108.592 47.6739C108.592 47.6738 108.591 47.6736 108.591 47.6735C106.879 46.9949 105.061 47.9988 104.516 49.6662L104.516 49.6684C103.808 51.8558 104.307 54.2398 105.316 56.4877C106.209 58.4758 107.538 60.4438 108.954 62.2215C108.986 62.3686 109.059 62.5086 109.173 62.6228L109.79 63.2383C111.345 65.0755 112.944 66.6784 114.174 67.8381C114.823 68.45 115.371 68.9404 115.758 69.2785C115.951 69.4477 116.104 69.5788 116.21 69.6682C116.263 69.713 116.303 69.7472 116.331 69.7706L116.364 69.7974L116.372 69.8046L116.375 69.8072C116.376 69.8074 116.376 69.8076 116.889 69.1854L116.375 69.8072C116.708 70.0811 117.197 70.0462 117.486 69.7274C117.775 69.4086 117.763 68.9187 117.459 68.6146L110.978 62.145C110.911 62.0659 110.844 61.9864 110.778 61.9064C109.195 60.0038 107.718 57.8984 106.788 55.8271C105.853 53.7449 105.52 51.8068 106.05 50.1663Z" fill="#171A22"/>
  <path d="M410.388 127.113C420.297 127.113 428.336 119.08 428.336 109.165V76.9692H392.446V109.165C392.44 119.073 400.473 127.113 410.388 127.113Z" fill="white" stroke="#171A22" stroke-width="1.5" stroke-miterlimit="10"/>
  <path d="M374.491 127.113C384.4 127.113 392.439 119.08 392.439 109.165V76.9692H356.55V109.165C356.55 119.073 364.583 127.113 374.491 127.113Z" fill="#F6F7F8" stroke="#171A22" stroke-width="1.5" stroke-miterlimit="10"/>
  <path d="M338.602 127.113C348.511 127.113 356.55 119.08 356.55 109.165V76.9692H320.66V109.165C320.654 119.073 328.693 127.113 338.602 127.113Z" fill="white" stroke="#171A22" stroke-width="1.5" stroke-miterlimit="10"/>
  <path d="M302.712 127.113C312.621 127.113 320.66 119.08 320.66 109.165V76.9692H284.77V109.165C284.764 119.073 292.797 127.113 302.712 127.113Z" fill="#F6F7F8" stroke="#171A22" stroke-width="1.5" stroke-miterlimit="10"/>
  <path d="M266.817 127.113C276.725 127.113 284.765 119.08 284.765 109.165V76.9692H248.875V109.165C248.875 119.073 256.908 127.113 266.817 127.113Z" fill="white" stroke="#171A22" stroke-width="1.5" stroke-miterlimit="10"/>
  <path d="M230.927 127.113C240.836 127.113 248.875 119.08 248.875 109.165V76.9692H212.985V109.165C212.979 119.073 221.018 127.113 230.927 127.113Z" fill="white" stroke="#171A22" stroke-width="1.5" stroke-miterlimit="10"/>
  <path d="M195.036 127.113C204.945 127.113 212.984 119.08 212.984 109.165V76.9692H177.095V109.165C177.088 119.073 185.121 127.113 195.036 127.113Z" fill="#F6F7F8" stroke="#171A22" stroke-width="1.5" stroke-miterlimit="10"/>
  <path d="M159.141 127.113C169.05 127.113 177.089 119.08 177.089 109.165V76.9692H141.199V109.165C141.199 119.073 149.232 127.113 159.141 127.113Z" fill="white" stroke="#171A22" stroke-width="1.5" stroke-miterlimit="10"/>
  <path d="M123.251 127.113C133.16 127.113 141.199 119.08 141.199 109.165V76.9692H105.309V109.165C105.303 119.073 113.336 127.113 123.251 127.113Z" fill="#F6F7F8" stroke="#171A22" stroke-width="1.5" stroke-miterlimit="10"/>
  <path d="M87.3615 127.113C97.2703 127.113 105.31 119.08 105.31 109.165V76.9692H69.4198V109.165C69.4135 119.073 77.4464 127.113 87.3615 127.113Z" fill="white" stroke="#171A22" stroke-width="1.5" stroke-miterlimit="10"/>
  <path d="M128.993 179.579C137.249 195.83 171.863 219.801 192.899 222.398L202.821 200.781C192.899 213.414 183.214 237.928 189.747 273.817C208.684 273.817 276.948 274.334 276.948 274.334C276.948 274.334 280.349 276.031 287.661 279.521C309.648 290.024 358.209 308.852 385.402 283.145C404.346 265.242 384.968 184.122 288.165 150.516L263.556 143.204C262.433 143.511 241.065 145.571 241.065 145.571C220.226 144.736 182.097 166.659 164.092 154.242C153.347 146.835 150.278 101.196 147.005 93.7179C145.767 90.8914 140.478 85.366 134.372 79.6045V96.3722H120.322C118.064 116.789 115.703 153.394 128.993 179.579Z" fill="#171A22"/>
  <path fill-rule="evenodd" clip-rule="evenodd" d="M134.053 78.8638C133.757 78.9913 133.566 79.2824 133.566 79.6044V95.5655H120.323C119.911 95.5655 119.566 95.8748 119.521 96.2833C118.39 106.511 117.23 120.815 118.022 135.855C118.813 150.886 121.557 166.71 128.274 179.944C132.498 188.258 143.359 198.408 155.701 206.776C167.299 214.638 180.384 221.048 190.802 222.896C186.8 236.061 185.16 253.12 188.954 273.962C189.024 274.345 189.358 274.624 189.748 274.624C199.213 274.624 221.01 274.753 240.444 274.882C250.16 274.947 259.285 275.011 265.981 275.06C269.328 275.084 272.069 275.104 273.972 275.118L276.756 275.139C276.864 275.193 277.024 275.272 277.237 275.377C277.671 275.591 278.326 275.913 279.209 276.344C280.976 277.205 283.656 278.503 287.314 280.249C298.334 285.513 316.054 292.885 334.457 295.709C352.844 298.531 372.093 296.837 385.956 283.731C390.949 279.013 393.29 270.288 392.619 259.545C391.945 248.761 388.232 235.778 380.897 222.333C366.22 195.43 337.012 166.62 288.43 149.754C288.418 149.75 288.407 149.746 288.395 149.743L263.786 142.431C263.642 142.388 263.489 142.387 263.344 142.426C263.347 142.425 263.323 142.431 263.253 142.444C263.19 142.455 263.107 142.468 263.002 142.483C262.792 142.514 262.512 142.551 262.168 142.593C261.482 142.678 260.56 142.783 259.48 142.901C257.323 143.137 254.549 143.423 251.808 143.7C249.068 143.977 246.363 144.244 244.343 144.442C243.333 144.541 242.494 144.622 241.908 144.679L241.042 144.763C235.717 144.56 229.35 145.798 222.578 147.538C219.172 148.414 215.645 149.421 212.078 150.446L211.322 150.664C207.998 151.619 204.644 152.584 201.309 153.47C194.127 155.379 187.09 156.91 180.748 157.202C174.402 157.495 168.847 156.541 164.55 153.578C163.349 152.75 162.198 151.344 161.109 149.423C160.024 147.511 159.029 145.143 158.113 142.452C156.282 137.069 154.797 130.481 153.539 123.856C152.618 119.001 151.822 114.15 151.101 109.756C150.838 108.154 150.586 106.613 150.34 105.154C149.882 102.429 149.45 99.9903 149.028 97.9948C148.61 96.0175 148.19 94.4129 147.744 93.3944C147.065 91.843 145.343 89.6647 143.11 87.218C140.851 84.7421 137.986 81.905 134.926 79.0178C134.692 78.7968 134.348 78.7363 134.053 78.8638ZM241.065 145.571C241.143 146.374 241.143 146.374 241.143 146.374L241.144 146.374L242.063 146.285C242.65 146.228 243.489 146.146 244.5 146.047C246.521 145.849 249.228 145.582 251.97 145.305C254.712 145.028 257.491 144.742 259.656 144.505C260.738 144.387 261.669 144.281 262.366 144.194C262.84 144.136 263.248 144.081 263.518 144.034L287.918 151.284C336.129 168.025 365.006 196.574 379.481 223.105C386.722 236.379 390.352 249.133 391.009 259.645C391.668 270.197 389.328 278.326 384.849 282.559C371.518 295.161 352.89 296.906 334.702 294.114C316.529 291.325 298.975 284.032 288.009 278.794C284.355 277.049 281.678 275.754 279.916 274.894C279.035 274.464 278.383 274.144 277.951 273.93C277.735 273.824 277.574 273.744 277.467 273.691L277.311 273.614L277.309 273.613C277.199 273.558 277.078 273.528 276.955 273.528L276.948 274.334C276.955 273.528 276.954 273.528 276.954 273.528L276.951 273.528L276.942 273.527L273.984 273.505C272.081 273.491 269.34 273.471 265.992 273.447C259.296 273.398 250.172 273.334 240.455 273.269C221.471 273.143 200.223 273.017 190.422 273.011C186.806 252.6 188.48 235.952 192.411 223.148C192.542 223.165 192.671 223.182 192.801 223.198C193.149 223.241 193.486 223.053 193.633 222.734L203.554 201.117C203.725 200.746 203.59 200.305 203.241 200.092C202.892 199.879 202.439 199.961 202.187 200.283C198.16 205.41 194.188 212.443 191.29 221.344C181.18 219.606 168.219 213.313 156.607 205.441C144.32 197.111 133.745 187.15 129.713 179.214C123.139 166.263 120.418 150.692 119.632 135.77C118.865 121.204 119.944 107.312 121.045 97.1785H134.372C134.818 97.1785 135.179 96.8174 135.179 96.372V81.4835C137.704 83.9018 140.032 86.2379 141.919 88.3053C144.166 90.7684 145.708 92.7662 146.267 94.0413C146.639 94.8921 147.031 96.3495 147.45 98.3284C147.864 100.289 148.292 102.7 148.75 105.421C148.993 106.868 149.245 108.401 149.506 109.998C150.228 114.398 151.029 119.28 151.955 124.157C153.216 130.803 154.718 137.48 156.586 142.972C157.52 145.718 158.553 148.188 159.706 150.219C160.853 152.242 162.149 153.883 163.634 154.906C168.34 158.151 174.303 159.114 180.822 158.814C187.344 158.513 194.517 156.944 201.723 155.029C205.074 154.138 208.443 153.169 211.764 152.215C212.017 152.142 212.27 152.069 212.523 151.996C216.092 150.971 219.599 149.969 222.98 149.101C229.757 147.359 235.95 146.173 241.033 146.377C241.069 146.379 241.106 146.378 241.143 146.374L241.065 145.571ZM196.529 212.556C196.182 213.279 195.842 214.02 195.509 214.779L196.529 212.556Z" fill="#171A22"/>
  <path fill-rule="evenodd" clip-rule="evenodd" d="M282.603 316.589H215.709V318.202C215.121 317.947 214.906 317.321 214.909 317.299L214.912 317.278L214.911 317.279C214.909 317.291 214.906 317.31 214.901 317.337C214.891 317.39 214.876 317.47 214.855 317.577C214.813 317.79 214.749 318.106 214.658 318.509C214.478 319.315 214.196 320.471 213.793 321.859C212.985 324.638 211.694 328.336 209.762 332.025C205.882 339.436 199.544 346.596 189.524 346.596V348.209H248.823L248.824 347.402L248.824 346.596H197.63C203.966 343.911 208.31 338.276 211.191 332.773C213.187 328.96 214.514 325.156 215.342 322.309C215.756 320.884 216.046 319.695 216.233 318.861C216.289 318.608 216.336 318.387 216.375 318.202H281.262C281.321 318.485 281.401 318.854 281.504 319.294C281.762 320.393 282.163 321.944 282.741 323.763C283.895 327.395 285.761 332.124 288.608 336.45C291.37 340.645 295.095 344.511 300.019 346.596H248.824L248.824 347.402L248.823 348.209H308.123V346.596C299.722 346.596 293.909 341.569 289.955 335.564C287.219 331.404 285.407 326.827 284.278 323.275C283.715 321.502 283.324 319.991 283.075 318.926C282.95 318.394 282.861 317.973 282.803 317.687C282.774 317.544 282.753 317.435 282.739 317.362C282.732 317.326 282.727 317.298 282.724 317.281L282.72 317.261L282.72 317.257L282.72 317.256L282.603 316.589Z" fill="#fff" transform='translate(-0.5, -0.1)'/>
  <path fill-rule="evenodd" clip-rule="evenodd" d="M319.846 346.596H177.794V360H319.846V346.596ZM318.233 348.209V358.387H179.407V348.209H318.233Z" fill="#fff"/>
  <path d="M248.823 306.549C242.934 306.549 238.161 301.775 238.161 295.887C238.161 289.999 242.934 285.226 248.823 285.226C254.711 285.226 259.484 289.999 259.484 295.887C259.484 301.775 254.711 306.549 248.823 306.549Z" fill="currentColor"/>
  <path d="M241.065 145.571C244.293 137.232 251.063 123.578 251.918 121.358C251.242 121.249 250.693 121.09 250.291 120.975C243.056 118.85 240.925 104.411 245.544 88.7284C247.681 81.4739 250.98 75.0297 254.853 70.3976C259.338 65.0125 264.589 62.0648 269.643 63.1239C281.957 65.7016 283.667 85.3213 278.55 102.644C278.55 102.644 278.582 102.848 278.652 103.231C279.443 107.972 285.536 137.379 288.178 150.523C284.145 160.24 249.895 163.251 241.065 145.571Z" fill="#F6F7F8"/>
  <path d="M254.846 70.3906C250.979 75.0228 247.674 81.467 245.537 88.7215C240.917 104.405 243.048 118.843 250.284 120.968C250.686 121.083 251.234 121.249 251.911 121.351C254.195 121.721 257.883 121.434 262.151 116.648" fill="#F6F7F8"/>
  <path fill-rule="evenodd" clip-rule="evenodd" d="M255.363 69.7718C255.021 69.4864 254.512 69.5322 254.227 69.8742C250.276 74.6072 246.925 81.1558 244.763 88.4939L244.763 88.494C242.428 96.4215 241.787 104.072 242.667 110.047C243.536 115.948 245.955 120.538 250.057 121.742L250.062 121.744C250.095 121.753 250.129 121.763 250.164 121.773C250.554 121.885 251.112 122.046 251.786 122.148C253.034 122.35 254.668 122.37 256.559 121.693C258.449 121.015 260.547 119.66 262.753 117.186C263.05 116.853 263.021 116.343 262.688 116.047C262.356 115.751 261.846 115.78 261.55 116.112C259.488 118.423 257.607 119.604 256.015 120.174C254.427 120.743 253.075 120.723 252.04 120.555L252.031 120.554L252.031 120.554C251.464 120.468 250.996 120.334 250.604 120.221C250.572 120.212 250.54 120.203 250.509 120.194C247.376 119.272 245.113 115.581 244.263 109.812C243.424 104.116 244.026 96.7052 246.311 88.9497C248.423 81.7789 251.683 75.4391 255.465 70.9078C255.751 70.5658 255.705 70.0573 255.363 69.7718Z" fill="#171A22"/>
  <path d="M264.774 158.256C255.108 157.675 245.244 153.942 241.064 145.578C244.293 137.239 251.062 123.584 251.917 121.364C251.241 121.256 250.692 121.096 250.29 120.981C243.055 118.857 240.924 104.418 245.543 88.7348C247.681 81.4803 250.979 75.0361 254.852 70.4039C259.338 65.0188 264.589 62.0711 269.642 63.1303C270.133 63.2387 270.599 63.3599 271.059 63.5131C267.045 63.9597 263.032 66.6905 259.491 70.9335C255.624 75.5656 252.319 82.0098 250.182 89.2643C245.563 104.947 247.694 119.386 254.929 121.511C255.331 121.626 255.88 121.792 256.556 121.894C255.701 124.114 248.931 137.768 245.703 146.107C249.212 153.126 256.728 156.884 264.774 158.256Z" fill="white"/>
  <path fill-rule="evenodd" clip-rule="evenodd" d="M278.513 102.436C278.074 102.509 277.777 102.924 277.849 103.363C278.378 106.557 281.303 120.872 283.967 133.907C285.247 140.168 286.466 146.134 287.33 150.431C286.375 152.444 283.813 154.268 280.087 155.575C276.277 156.911 271.441 157.636 266.439 157.517C256.5 157.281 246.26 153.74 241.948 145.527C243.557 141.428 245.971 136.118 248.115 131.511C248.787 130.067 249.434 128.686 250.022 127.434C251.346 124.613 252.365 122.44 252.67 121.648C252.83 121.232 252.623 120.766 252.207 120.606C251.792 120.445 251.325 120.653 251.165 121.068C250.881 121.805 249.912 123.871 248.617 126.63C248.02 127.903 247.353 129.324 246.652 130.83C244.451 135.562 241.941 141.083 240.313 145.28C240.231 145.492 240.242 145.729 240.343 145.932C244.96 155.18 256.126 158.886 266.4 159.13C271.567 159.253 276.601 158.507 280.621 157.097C284.592 155.704 287.773 153.591 288.916 150.832C288.977 150.684 288.993 150.521 288.962 150.364C288.088 146.018 286.839 139.906 285.53 133.498C282.872 120.491 279.965 106.264 279.441 103.1C279.368 102.66 278.953 102.363 278.513 102.436Z" fill="#171A22"/>
  <path fill-rule="evenodd" clip-rule="evenodd" d="M255.363 69.7723C255.021 69.4869 254.512 69.5327 254.227 69.8747C250.276 74.6077 246.925 81.1563 244.763 88.4944L244.763 88.4945C242.428 96.422 241.787 104.072 242.667 110.048C243.536 115.948 245.955 120.538 250.057 121.743L250.062 121.744C250.095 121.754 250.129 121.763 250.164 121.773C250.554 121.886 251.112 122.046 251.786 122.148C253.034 122.35 254.668 122.371 256.559 121.693C258.449 121.016 260.547 119.66 262.753 117.186C263.05 116.854 263.021 116.344 262.688 116.047C262.356 115.751 261.846 115.78 261.55 116.112C259.488 118.424 257.607 119.604 256.015 120.175C254.427 120.744 253.075 120.723 252.04 120.556L252.031 120.554L252.031 120.554C251.464 120.469 250.996 120.334 250.604 120.222C250.572 120.212 250.54 120.203 250.509 120.194C247.376 119.273 245.113 115.582 244.263 109.812C243.424 104.116 244.026 96.7057 246.311 88.9502C248.423 81.7794 251.683 75.4396 255.465 70.9083C255.751 70.5663 255.705 70.0577 255.363 69.7723Z" fill="#171A22"/>
  <path d="M250.118 90.8782C250.118 90.8782 231.621 86.297 230.652 88.8747C229.688 91.4524 246.749 98.7771 246.749 98.7771" fill="white"/>
  <path fill-rule="evenodd" clip-rule="evenodd" d="M249.924 91.6613C249.924 91.6613 249.924 91.6613 250.118 90.8785L249.924 91.6613C250.356 91.7684 250.794 91.5047 250.901 91.0724C251.008 90.64 250.744 90.2028 250.312 90.0957L250.118 90.8785C250.312 90.0959 250.312 90.0957 250.312 90.0957L250.257 90.0822C250.221 90.0734 250.169 90.0606 250.1 90.0439C249.963 90.0107 249.763 89.9624 249.507 89.9019C248.997 89.781 248.267 89.6113 247.388 89.4158C245.632 89.025 243.276 88.53 240.886 88.1155C238.504 87.7024 236.058 87.3637 234.131 87.2947C233.174 87.2604 232.297 87.2905 231.606 87.4307C231.261 87.5008 230.92 87.6062 230.629 87.7729C230.334 87.9417 230.043 88.2016 229.897 88.5911L229.896 88.5927C229.607 89.3662 230.057 90.0907 230.448 90.5584C230.888 91.0832 231.54 91.6274 232.291 92.1653C233.803 93.2489 235.886 94.4274 237.967 95.5085C240.056 96.5935 242.171 97.5956 243.762 98.3257C244.558 98.691 245.225 98.9887 245.692 99.1953C245.926 99.2987 246.11 99.3792 246.236 99.434C246.299 99.4615 246.348 99.4825 246.38 99.4967L246.431 99.5184C246.431 99.5185 246.431 99.5185 246.733 98.815L246.431 99.5184C246.84 99.6941 247.315 99.5049 247.49 99.0956C247.666 98.6863 247.477 98.2121 247.067 98.0364L246.795 98.6701C247.067 98.0364 247.068 98.0364 247.067 98.0364L247.02 98.016C246.989 98.0024 246.941 97.9819 246.88 97.9551C246.756 97.9013 246.575 97.822 246.344 97.72C245.882 97.516 245.223 97.2213 244.435 96.8597C242.857 96.1358 240.768 95.1457 238.711 94.0772C236.647 93.005 234.646 91.869 233.23 90.8542C232.517 90.343 231.994 89.8921 231.685 89.5228C231.537 89.3458 231.472 89.2306 231.443 89.1655C231.532 89.1175 231.686 89.0603 231.927 89.0115C232.433 88.9088 233.16 88.8739 234.073 88.9066C235.888 88.9716 238.247 89.2949 240.611 89.7048C242.966 90.1134 245.296 90.6026 247.038 90.9902C247.908 91.1839 248.631 91.352 249.136 91.4715C249.388 91.5312 249.586 91.5788 249.72 91.6114C249.787 91.6277 249.839 91.6403 249.873 91.6487L249.924 91.6613Z" fill="#171A22"/>
  <path d="M278.544 102.644C278.544 102.644 278.575 102.848 278.646 103.231C276.642 102.657 274.735 101.579 273.197 100.181C269.617 96.9272 267.627 92.3078 265.949 87.7714C264.271 83.2349 262.739 78.5326 259.785 74.7043C258.452 72.988 256.755 71.4631 254.847 70.3976C259.332 65.0125 264.583 62.0648 269.637 63.1239C281.951 65.7016 283.661 85.3149 278.544 102.644Z" fill="#171A22"/>
  <path fill-rule="evenodd" clip-rule="evenodd" d="M269.801 62.3345C264.307 61.1832 258.781 64.4136 254.226 69.8814C254.073 70.0657 254.009 70.3088 254.053 70.5447C254.097 70.7806 254.243 70.9847 254.453 71.1017C256.255 72.1085 257.872 73.5577 259.147 75.1982C261.705 78.5136 263.165 82.5092 264.659 86.6004C264.836 87.083 265.012 87.5669 265.191 88.0512C266.87 92.589 268.915 97.3795 272.654 100.778L272.654 100.778C274.28 102.256 276.297 103.397 278.423 104.006C278.691 104.083 278.98 104.016 279.187 103.829C279.393 103.641 279.488 103.36 279.438 103.086C279.408 102.92 279.385 102.788 279.369 102.694C281.912 93.9944 282.765 84.7043 281.42 77.2097C280.069 69.6889 276.437 63.7238 269.801 62.3346M277.857 102.118C280.321 93.6272 281.117 84.6485 279.832 77.4947C278.528 70.2322 275.149 65.1019 269.47 63.9133L269.47 63.9133C265.07 62.9909 260.339 65.3739 256.079 70.1984C257.747 71.2742 259.226 72.6713 260.421 74.2095L260.423 74.2116C263.144 77.7384 264.692 81.981 266.172 86.0404C266.35 86.5273 266.527 87.0115 266.704 87.4916C268.382 92.0267 270.318 96.4751 273.739 99.5845C274.925 100.663 276.347 101.54 277.857 102.118Z" fill="#171A22"/>
  <path d="M269.068 98.471C266.32 98.471 264.092 96.2428 264.092 93.4943C264.092 90.7457 266.32 88.5176 269.068 88.5176C271.817 88.5176 274.045 90.7457 274.045 93.4943C274.045 96.2428 271.817 98.471 269.068 98.471Z" fill="#F6F7F8"/>
  <path d="M230.926 218.875L272.322 259.34L280.578 250.892L239.31 210.549" fill="#F6F7F8"/>
  <path fill-rule="evenodd" clip-rule="evenodd" d="M279.438 250.905L238.746 211.126L239.874 209.972L281.719 250.879L272.335 260.48L230.362 219.452L231.49 218.299L272.309 258.199L279.438 250.905Z" fill="#171A22"/>
  <path d="M239.311 210.549L231.137 202.561L222.875 211.008L230.927 218.875" fill="#F6F7F8"/>
  <path fill-rule="evenodd" clip-rule="evenodd" d="M231.124 201.421L221.734 211.022L230.363 219.453L231.49 218.299L224.015 210.996L231.15 203.701L238.747 211.126L239.874 209.973L231.124 201.421Z" fill="#171A22"/>
  <path d="M225.018 213.095C225.018 213.095 242.373 213.542 241.92 213.095C241.467 212.648 231.137 202.555 231.137 202.555L220.954 211.621L225.018 213.095Z" fill="#171A22"/>
  <path fill-rule="evenodd" clip-rule="evenodd" d="M231.7 201.978C231.397 201.682 230.917 201.67 230.6 201.952L220.417 211.019C220.205 211.208 220.108 211.494 220.161 211.773C220.215 212.052 220.411 212.282 220.678 212.379L224.743 213.853C224.824 213.883 224.91 213.899 224.997 213.901L225.018 213.095C224.997 213.901 224.997 213.901 224.997 213.901L225.192 213.906C225.32 213.909 225.506 213.914 225.743 213.92C226.217 213.931 226.894 213.947 227.705 213.964C229.326 213.999 231.484 214.041 233.628 214.069C235.77 214.097 237.906 214.111 239.48 214.09C240.264 214.079 240.924 214.06 241.38 214.028C241.599 214.012 241.809 213.991 241.968 213.958L241.97 213.958C242.025 213.946 242.187 213.913 242.339 213.818C242.405 213.776 242.64 213.62 242.714 213.293C242.803 212.903 242.593 212.626 242.485 212.521C242.257 212.296 239.559 209.658 236.922 207.08L231.7 201.978L231.7 201.978C231.7 201.978 231.7 201.978 231.136 202.555L231.7 201.978ZM231.111 203.657L235.794 208.234C237.41 209.813 239.045 211.411 240.123 212.465C239.917 212.47 239.695 212.474 239.459 212.477C237.907 212.498 235.788 212.484 233.649 212.456C231.511 212.428 229.358 212.386 227.74 212.351C226.93 212.334 226.255 212.318 225.782 212.307C225.545 212.301 225.359 212.297 225.232 212.294L225.169 212.292L222.5 211.324L231.111 203.657ZM241.64 212.379C241.66 212.375 241.657 212.374 241.638 212.379C241.639 212.379 241.639 212.379 241.64 212.379Z" fill="#171A22"/>
  <path d="M201.219 221.026C179.323 221.026 161.572 203.275 161.572 181.378C161.572 159.481 179.323 141.73 201.219 141.73C223.116 141.73 240.867 159.481 240.867 181.378C240.867 203.275 223.116 221.026 201.219 221.026Z" fill="#F6F7F8"/>
  <path fill-rule="evenodd" clip-rule="evenodd" d="M201.219 142.537C222.67 142.537 240.06 159.927 240.06 181.378C240.06 202.83 222.67 220.219 201.219 220.219C179.767 220.219 162.377 202.83 162.377 181.378C162.377 159.927 179.767 142.537 201.219 142.537ZM241.673 181.378C241.673 159.036 223.561 140.924 201.219 140.924C178.876 140.924 160.764 159.036 160.764 181.378C160.764 203.72 178.876 221.832 201.219 221.832C223.561 221.832 241.673 203.72 241.673 181.378Z" fill="#171A22"/>
  <path d="M201.219 213.414C183.526 213.414 169.183 199.071 169.183 181.378C169.183 163.685 183.526 149.342 201.219 149.342C218.912 149.342 233.255 163.685 233.255 181.378C233.255 199.071 218.912 213.414 201.219 213.414Z" fill="#171A22"/>
  <path fill-rule="evenodd" clip-rule="evenodd" d="M201.219 150.149C218.467 150.149 232.449 164.131 232.449 181.378C232.449 198.626 218.467 212.608 201.219 212.608C183.971 212.608 169.99 198.626 169.99 181.378C169.99 164.131 183.971 150.149 201.219 150.149ZM234.062 181.378C234.062 163.24 219.357 148.536 201.219 148.536C183.081 148.536 168.377 163.24 168.377 181.378C168.377 199.516 183.081 214.221 201.219 214.221C219.357 214.221 234.062 199.516 234.062 181.378Z" fill="#171A22"/>
  <path d="M200.109 175.068C198.916 179.725 199.165 184.645 198.227 189.366C197.289 194.088 194.68 198.981 190.105 200.468C185.083 202.101 179.437 198.796 177.006 194.113C174.575 189.43 174.741 183.809 175.768 178.628C177.236 171.233 180.56 163.915 186.487 159.251C192.415 154.593 201.264 153.221 207.587 157.337C208.876 158.179 210.088 159.295 210.535 160.763C211.703 164.597 207.606 165.063 205.411 166.633C202.668 168.598 200.932 171.858 200.109 175.068Z" fill="white"/>
  <path d="M283.073 248.359L276.948 274.334L264.634 270.812C255.248 268.126 246.679 263.06 239.974 255.965C236.567 252.36 234.429 249.125 235.367 247.862C235.724 247.383 236.681 247.294 238.047 247.466L238.143 247.562C238.111 247.53 238.079 247.498 238.053 247.466H238.047C235.201 244.359 233.472 241.615 234.397 240.531C234.869 239.975 236.241 240.122 238.136 240.684C235.686 237.889 234.295 235.49 235.15 234.501C235.801 233.742 238.123 234.291 241.18 235.439C238.2 232.249 235.692 230.296 236.637 229.199C238.678 226.8 256.69 237.768 261.795 239.388L283.073 248.359Z" fill="#F6F7F8"/>
  <path fill-rule="evenodd" clip-rule="evenodd" d="M237.035 228.11C236.676 228.185 236.302 228.348 236.024 228.674C235.538 229.24 235.557 229.907 235.776 230.477C235.978 231.002 236.375 231.537 236.825 232.06C237.245 232.547 237.765 233.085 238.334 233.664C238.007 233.581 237.696 233.512 237.404 233.46C236.847 233.361 236.316 233.315 235.853 233.363C235.4 233.411 234.893 233.562 234.539 233.974C234.131 234.447 234.045 235.036 234.111 235.586C234.175 236.127 234.39 236.703 234.685 237.281C235.019 237.935 235.485 238.651 236.051 239.405C235.958 239.395 235.868 239.388 235.78 239.383C235.113 239.344 234.288 239.414 233.783 240.007C233.342 240.525 233.283 241.175 233.382 241.767C233.48 242.355 233.746 242.989 234.103 243.631C234.606 244.536 235.342 245.551 236.232 246.618C236.229 246.619 236.226 246.619 236.222 246.62C235.69 246.691 235.094 246.879 234.721 247.378L234.72 247.38C234.285 247.965 234.279 248.685 234.425 249.331C234.574 249.986 234.906 250.704 235.348 251.447C236.235 252.938 237.667 254.698 239.388 256.518C246.197 263.723 254.894 268.863 264.412 271.587L277.539 275.341L284.015 247.88L262.074 238.63L262.039 238.619C260.835 238.237 258.812 237.28 256.358 236.053C255.422 235.585 254.426 235.08 253.4 234.559C251.775 233.734 250.076 232.872 248.422 232.062C245.722 230.738 243.082 229.522 240.977 228.789C239.929 228.424 238.969 228.162 238.179 228.079C237.784 228.037 237.392 228.036 237.035 228.11ZM238.404 246.659C237.111 245.225 236.104 243.912 235.513 242.847C235.198 242.28 235.027 241.83 234.972 241.502C234.922 241.199 234.981 241.092 235.006 241.059C235.008 241.057 235.009 241.055 235.011 241.053L235.012 241.052C235.008 241.057 235.006 241.059 235.006 241.059C235.006 241.059 235.006 241.059 235.006 241.059C235.008 241.062 235.146 240.961 235.686 240.993C236.233 241.025 236.98 241.182 237.907 241.456L240.581 242.249L238.743 240.151C237.534 238.773 236.624 237.533 236.122 236.548C235.87 236.054 235.745 235.67 235.712 235.396C235.683 235.148 235.734 235.061 235.756 235.033C235.77 235.024 235.837 234.987 236.021 234.967C236.271 234.941 236.635 234.961 237.121 235.048C238.091 235.221 239.38 235.624 240.896 236.193L244.12 237.405L241.769 234.888C241.096 234.168 240.448 233.51 239.864 232.918C239.793 232.846 239.723 232.776 239.654 232.706C239.012 232.054 238.468 231.495 238.048 231.008C237.617 230.506 237.378 230.148 237.282 229.898C237.244 229.799 237.241 229.748 237.241 229.733C237.242 229.732 237.243 229.73 237.245 229.728C237.256 229.722 237.29 229.705 237.364 229.689C237.498 229.661 237.708 229.651 238.01 229.683C238.616 229.747 239.438 229.961 240.446 230.312C242.452 231.011 245.016 232.189 247.712 233.51C249.361 234.318 251.035 235.168 252.649 235.987C253.677 236.509 254.681 237.018 255.637 237.496C258.038 238.696 260.164 239.71 261.515 240.145L282.132 248.837L276.357 273.325L264.856 270.036C264.856 270.036 264.856 270.036 264.856 270.036C255.603 267.388 247.161 262.395 240.56 255.41C238.873 253.626 237.533 251.965 236.734 250.622C236.333 249.947 236.094 249.395 235.999 248.975C235.905 248.56 235.975 248.398 236.011 248.346C236.016 248.343 236.103 248.263 236.435 248.219C236.736 248.178 237.142 248.181 237.656 248.233L237.692 248.272H238.053V247.65L238.713 246.991L238.692 246.97L238.68 246.958C238.679 246.957 238.679 246.956 238.678 246.956L238.441 246.659H238.404ZM237.241 229.731C237.241 229.731 237.241 229.731 237.241 229.731V229.731ZM237.241 229.731C237.241 229.731 237.241 229.731 237.241 229.731V229.731ZM235.762 235.025L235.762 235.026L235.762 235.025Z" fill="#171A22"/>
  <path fill-rule="evenodd" clip-rule="evenodd" d="M233.791 240.012C234.219 239.512 234.872 239.391 235.423 239.381L233.791 240.012ZM235.423 239.381C236.006 239.371 236.695 239.483 237.435 239.664L235.423 239.381ZM237.435 239.664C238.922 240.027 240.8 240.72 242.827 241.559L237.435 239.664ZM242.827 241.559L242.211 243.05L242.827 241.559ZM242.211 243.05C240.199 242.217 238.414 241.564 237.052 241.23L242.211 243.05ZM237.052 241.23C236.367 241.063 235.833 240.988 235.451 240.994L237.052 241.23ZM235.451 240.994C235.125 241 235.023 241.062 235.01 241.069L235.451 240.994ZM235.01 241.069C234.98 241.11 234.895 241.279 235.044 241.779C235.197 242.292 235.546 242.966 236.097 243.775C237.192 245.383 238.956 247.348 241.033 249.347C245.203 253.36 250.455 257.344 253.737 258.766L253.096 260.246C249.545 258.708 244.126 254.563 239.915 250.509C237.802 248.476 235.948 246.423 234.764 244.682C234.175 243.818 233.72 242.984 233.498 242.239C233.283 241.517 233.231 240.665 233.791 240.012" fill="#171A22"/>
  <path d="M254.17 253.477C247.337 250.516 232.827 237.22 235.156 234.508C235.948 233.583 239.233 234.604 243.272 236.275" fill="#F6F7F8"/>
  <path fill-rule="evenodd" clip-rule="evenodd" d="M234.544 233.982C234.972 233.483 235.625 233.362 236.176 233.352L234.544 233.982ZM236.176 233.352C236.759 233.342 237.448 233.453 238.188 233.634L236.176 233.352ZM238.188 233.634C239.675 233.998 241.553 234.691 243.58 235.53L238.188 233.634ZM243.58 235.53L242.963 237.02L243.58 235.53ZM242.963 237.02C240.952 236.188 239.167 235.534 237.805 235.201L242.963 237.02ZM237.805 235.201C237.119 235.034 236.586 234.958 236.204 234.965L237.805 235.201ZM236.204 234.965C235.878 234.971 235.775 235.033 235.763 235.04L236.204 234.965ZM235.763 235.04C235.733 235.08 235.648 235.249 235.797 235.75C235.95 236.263 236.299 236.936 236.85 237.746C237.945 239.354 239.709 241.318 241.786 243.318C245.956 247.331 251.208 251.315 254.49 252.737L253.849 254.217C250.298 252.678 244.879 248.533 240.668 244.48C238.555 242.446 236.701 240.393 235.517 238.653C234.928 237.788 234.473 236.955 234.251 236.21C234.036 235.488 233.984 234.636 234.544 233.983" fill="#171A22"/>
  <path d="M256.32 247.262C249.487 244.302 234.314 231.917 236.643 229.212C238.136 226.22 251.643 235.133 259.383 238.368" fill="#F6F7F8"/>
  <path fill-rule="evenodd" clip-rule="evenodd" d="M235.968 228.764C236.342 228.103 237.019 227.854 237.676 227.809C238.345 227.763 239.133 227.909 239.963 228.151C241.636 228.638 243.762 229.602 246.03 230.733C247.69 231.56 249.43 232.478 251.156 233.389C254.218 235.004 257.236 236.597 259.693 237.624L259.071 239.112C256.555 238.06 253.409 236.401 250.295 234.759C248.587 233.859 246.889 232.963 245.31 232.176C243.047 231.048 241.033 230.143 239.512 229.699C238.744 229.476 238.172 229.391 237.786 229.418C237.427 229.443 237.378 229.544 237.365 229.57C237.365 229.571 237.365 229.571 237.364 229.572L237.319 229.662L237.254 229.738C237.241 229.753 237.133 229.883 237.303 230.383C237.467 230.866 237.836 231.503 238.417 232.27C239.57 233.794 241.414 235.646 243.576 237.534C247.907 241.316 253.335 245.09 256.64 246.522L255.999 248.002C252.471 246.473 246.896 242.575 242.515 238.749C240.32 236.832 238.381 234.896 237.131 233.244C236.51 232.424 236.022 231.626 235.776 230.902C235.545 230.223 235.468 229.413 235.968 228.764Z" fill="#171A22"/>
  <path fill-rule="evenodd" clip-rule="evenodd" d="M339.718 238.914C340.07 243.074 338.647 246.966 335.628 249.97C333.821 251.769 330.428 252.783 326.12 253.196C321.86 253.604 316.898 253.407 312.154 252.957C307.416 252.507 302.925 251.807 299.616 251.218C297.963 250.924 296.606 250.658 295.664 250.466C295.193 250.37 294.826 250.292 294.576 250.239C294.452 250.212 294.357 250.192 294.293 250.178L294.222 250.162L294.2 250.157L294.199 250.157C294.199 250.157 294.199 250.157 294.022 250.944C293.846 251.731 293.846 251.731 293.846 251.731L293.872 251.736L293.947 251.753C294.013 251.768 294.111 251.789 294.238 251.816C294.492 251.871 294.865 251.949 295.342 252.047C296.295 252.241 297.665 252.509 299.334 252.806C302.67 253.4 307.207 254.107 312.002 254.563C316.791 255.017 321.868 255.223 326.273 254.802C330.631 254.384 334.531 253.338 336.766 251.113C340.12 247.776 341.718 243.417 341.325 238.778C340.934 234.15 338.568 229.305 334.114 224.93L332.984 226.08C337.22 230.242 339.365 234.744 339.718 238.914Z" fill="#F6F7F8"/>
  <path d="M215.715 317.396L289.281 336.007C283.698 327.521 281.925 317.396 281.925 317.396H215.715Z" fill="#171A22"/>
  <path fill-rule="evenodd" clip-rule="evenodd" d="M282.602 316.589H209.239L291.096 337.298L289.955 335.564C287.218 331.404 285.406 326.827 284.278 323.275C283.714 321.502 283.324 319.991 283.074 318.926C282.949 318.394 282.86 317.973 282.802 317.687C282.773 317.544 282.752 317.435 282.738 317.362C282.731 317.326 282.726 317.298 282.723 317.281L282.72 317.261L282.719 317.257L282.719 317.256L282.602 316.589ZM281.261 318.202C281.32 318.485 281.4 318.854 281.504 319.294C281.761 320.393 282.163 321.944 282.741 323.763C283.743 326.92 285.285 330.905 287.54 334.735L222.191 318.202H281.261Z" fill="#171A22" />
  <path fill-rule="evenodd" clip-rule="evenodd" d="M0.000549316 360H500.236V358.387H0.000549316V360Z" fill="#fff" />
  <path d="M109.75 62.0518C108.321 61.4456 87.8208 58.8552 83.9032 58.4469C77.4335 57.7769 68.6094 52.4429 68.2713 55.8309C67.1675 59.825 88.612 71.0354 100.811 72.3051C113.017 73.5748 120.246 89.6661 124.789 98.7008L144.07 100.876L146.82 86.5078C146.82 86.5078 146.82 73.5173 137.301 64.6996C135.265 62.8174 133.217 60.9607 130.487 60.4503C110.025 56.6348 111.607 49.7249 108.296 48.4169C107.058 47.9256 105.699 48.6402 105.284 49.9099C102.808 57.5664 116.89 69.1787 116.89 69.1787L109.75 62.0518Z" fill="#F6F7F8"/>
  <path fill-rule="evenodd" clip-rule="evenodd" d="M106.05 50.1599C106.335 49.2888 107.234 48.8638 107.997 49.1668L107.998 49.1673C108.574 49.3945 108.971 49.8662 109.625 50.7816C109.672 50.8465 109.719 50.9129 109.767 50.9809C110.377 51.8376 111.154 52.93 112.413 54.0874C115.141 56.5953 120.024 59.3203 130.338 61.2434C132.804 61.7046 134.689 63.3838 136.752 65.2921C141.366 69.566 143.687 74.8647 144.852 79.1235C145.433 81.2501 145.724 83.1067 145.869 84.4286C145.942 85.0891 145.978 85.615 145.995 85.973C146.004 86.1519 146.009 86.2888 146.011 86.3794C146.011 86.401 146.012 86.42 146.012 86.4363L143.418 99.9917L125.313 97.9487C125.092 97.5076 124.865 97.05 124.63 96.5783C122.495 92.2816 119.781 86.8226 116.323 82.114C112.38 76.7459 107.342 72.174 100.894 71.5032C100.894 71.5032 100.894 71.5032 100.894 71.5032C94.9377 70.8833 86.6298 67.8134 79.9198 64.3723C76.5714 62.6552 73.6647 60.8678 71.6767 59.2814C70.6789 58.4852 69.9467 57.7664 69.5028 57.1583C69.0329 56.5145 69.0128 56.1726 69.0478 56.046C69.06 56.0019 69.0684 55.9569 69.0729 55.9113C69.0946 55.6948 69.1594 55.6532 69.1981 55.6293C69.2865 55.5746 69.4953 55.5077 69.9176 55.5224C70.7635 55.552 71.9966 55.8834 73.5378 56.3844C74.1307 56.5772 74.7627 56.7931 75.4212 57.0181C78.0663 57.9219 81.1388 58.9717 83.8188 59.2493C83.819 59.2493 83.8186 59.2493 83.8188 59.2493C85.7653 59.4522 91.8601 60.2006 97.6522 60.9748C100.547 61.3618 103.36 61.7544 105.537 62.0877C106.626 62.2545 107.55 62.4056 108.243 62.5331C108.59 62.597 108.873 62.6537 109.087 62.7025C109.18 62.7236 109.256 62.7423 109.316 62.7586L109.18 62.6229L109.237 62.5657C108.782 62.0074 108.334 61.4286 107.904 60.8349C107.296 60.7305 106.579 60.6156 105.781 60.4934C103.589 60.1577 100.765 59.7636 97.8659 59.3761C92.0712 58.6015 85.9571 57.8505 83.986 57.645C81.5084 57.3885 78.6747 56.4221 76.0417 55.5241C75.3564 55.2903 74.6847 55.0613 74.0364 54.8505C72.5206 54.3578 71.0799 53.9491 69.974 53.9105C69.4204 53.8911 68.8338 53.958 68.3496 54.2575C67.8343 54.5763 67.551 55.0838 67.4753 55.6856C67.4808 55.6625 67.4867 55.6395 67.4931 55.6164L68.2704 55.8312L67.468 55.7511C67.4701 55.7292 67.4726 55.7073 67.4753 55.6856C67.2738 56.535 67.675 57.39 68.2 58.1092C68.7652 58.8836 69.6226 59.7059 70.6706 60.5422C72.7742 62.2208 75.7842 64.0642 79.1838 65.8076C85.9699 69.2877 94.4838 72.4578 100.727 73.1075C106.485 73.7065 111.164 77.8151 115.023 83.0688C118.392 87.6558 121.039 92.979 123.18 97.2853C123.486 97.9005 123.782 98.4949 124.067 99.0634C124.19 99.3068 124.427 99.4719 124.698 99.5025L143.979 101.678C144.398 101.725 144.782 101.442 144.862 101.028L147.612 86.6598C147.621 86.6098 147.626 86.559 147.626 86.5082H146.819C147.626 86.5082 147.626 86.5078 147.626 86.5074L147.626 86.5064L147.626 86.5035L147.626 86.494L147.626 86.4612C147.625 86.4331 147.625 86.3929 147.623 86.3409C147.621 86.2369 147.616 86.086 147.606 85.8925C147.587 85.5056 147.549 84.9477 147.472 84.2527C147.32 82.8633 147.016 80.9212 146.407 78.6979C145.193 74.2572 142.753 68.652 137.848 64.1083L137.848 64.1079C135.84 62.2518 133.629 60.2177 130.634 59.6579C120.485 57.7655 115.928 55.1278 113.505 52.8998C112.374 51.8603 111.683 50.8909 111.076 50.0371C111.029 49.9719 110.983 49.9075 110.938 49.8437C110.318 48.9764 109.671 48.0939 108.591 47.6671L108.295 48.4172L108.592 47.6676C108.592 47.6674 108.591 47.6673 108.591 47.6671C106.879 46.9886 105.061 47.9924 104.517 49.6598L104.516 49.6621C103.809 51.8495 104.307 54.2335 105.316 56.4813C105.984 57.9675 106.895 59.4423 107.904 60.8349M110.978 62.1387C110.911 62.0596 110.844 61.98 110.778 61.9C109.195 59.9975 107.718 57.8921 106.788 55.8208C105.853 53.7386 105.52 51.8004 106.05 50.1599M116.889 69.179L116.376 69.8012C116.708 70.0751 117.197 70.0398 117.486 69.721C117.776 69.4023 117.764 68.9124 117.459 68.6082L110.978 62.1387M109.42 62.7895C109.406 62.7848 109.381 62.7769 109.343 62.7661C109.334 62.7636 109.325 62.7611 109.316 62.7586L109.79 63.232C109.706 63.1325 109.622 63.0324 109.538 62.9315C109.499 62.8844 109.459 62.837 109.42 62.7895ZM116.889 69.179C116.376 69.8012 116.376 69.8014 116.376 69.8012L116.372 69.7983L116.364 69.7911L116.332 69.7643C116.316 69.7514 116.297 69.7351 116.274 69.7156C116.255 69.6998 116.234 69.6819 116.21 69.6619C116.105 69.5725 115.951 69.4413 115.758 69.2722C115.371 68.934 114.823 68.4437 114.174 67.8317C112.944 66.6721 111.345 65.0692 109.79 63.232L116.319 69.7498L116.889 69.179Z" fill="#171A22"/>
  <path d="M78.212 14.9834H137.479V55.8116H78.212V14.9834Z" fill="#F6F7F8"/>
  <path d="M78.212 14.9834H137.479V55.8116H78.212V14.9834Z" fill="white"/>
  <path fill-rule="evenodd" clip-rule="evenodd" d="M138.286 14.9837C138.286 14.5383 137.925 14.1772 137.48 14.1772H78.2122C77.7667 14.1772 77.4057 14.5383 77.4057 14.9837V55.8119C77.4057 56.2573 77.7667 56.6184 78.2122 56.6184H137.48C137.925 56.6184 138.286 56.2573 138.286 55.8119V14.9837ZM136.673 15.7902V55.0054H79.0186V15.7902H136.673Z" fill="#171A22"/>
  <path d="M78.2181 62.4727H141.812V55.8115H73.8858L78.2181 62.4727Z" fill="#171A22"/>
  <path fill-rule="evenodd" clip-rule="evenodd" d="M142.618 55.8119C142.618 55.3664 142.257 55.0054 141.812 55.0054H73.886C73.5902 55.0054 73.3181 55.1673 73.1771 55.4273C73.036 55.6873 73.0486 56.0036 73.2099 56.2516L77.5422 62.9127C77.691 63.1415 77.9454 63.2795 78.2183 63.2795H141.812C142.257 63.2795 142.618 62.9184 142.618 62.473V55.8119ZM141.005 56.6183V61.6665H78.6558L75.3726 56.6183H141.005Z" fill="#171A22"/>
  <path d="M88.0759 14.9834C88.0759 18.6202 91.03 21.5743 94.6669 21.5743C98.3037 21.5743 101.258 18.6202 101.258 14.9834H88.0759Z" fill="#171A22"/>
  <path fill-rule="evenodd" clip-rule="evenodd" d="M102.064 14.9837C102.064 14.5383 101.703 14.1772 101.258 14.1772H88.0761V14.9837H87.2696C87.2696 19.066 90.5848 22.3812 94.667 22.3812C98.7492 22.3812 102.064 19.066 102.064 14.9837ZM88.9385 15.7902H100.396C100.002 18.6008 97.5848 20.7682 94.667 20.7682C91.7492 20.7682 89.3316 18.6008 88.9385 15.7902Z" fill="#171A22"/>
  <path d="M114.446 14.9834C114.446 18.6202 117.394 21.5743 121.037 21.5743C124.674 21.5743 127.628 18.6202 127.628 14.9834H114.446Z" fill="#171A22"/>
  <path fill-rule="evenodd" clip-rule="evenodd" d="M128.435 14.9837C128.435 14.5383 128.073 14.1772 127.628 14.1772H114.446V14.9837H113.64C113.64 19.0655 116.948 22.3812 121.037 22.3812C125.119 22.3812 128.435 19.066 128.435 14.9837ZM115.308 15.7902H126.766C126.373 18.6008 123.955 20.7682 121.037 20.7682C118.114 20.7682 115.701 18.6011 115.308 15.7902Z" fill="#171A22"/>
  <path d="M88.0759 0.806641H101.258V14.9839H88.0759V0.806641Z" fill="#171A22"/>
  <path fill-rule="evenodd" clip-rule="evenodd" d="M102.064 0.806482C102.064 0.361074 101.703 0 101.258 0H88.0761C87.6307 0 87.2696 0.361074 87.2696 0.806482V14.9837C87.2696 15.4291 87.6307 15.7902 88.0761 15.7902H101.258C101.703 15.7902 102.064 15.4291 102.064 14.9837V0.806482ZM100.451 1.61296V14.1772H88.8826V1.61296H100.451Z" fill="#171A22"/>
  <path d="M114.446 0.806641H127.628V14.9839H114.446V0.806641Z" fill="#171A22"/>
  <path fill-rule="evenodd" clip-rule="evenodd" d="M128.435 0.806482C128.435 0.361074 128.073 0 127.628 0H114.446C114.001 0 113.64 0.361074 113.64 0.806482V14.9837C113.64 15.4291 114.001 15.7902 114.446 15.7902H127.628C128.073 15.7902 128.435 15.4291 128.435 14.9837V0.806482ZM126.822 1.61296V14.1772H115.253V1.61296H126.822Z" fill="#171A22"/>
  <path d="M110.056 55.8121H119.352H128.648V29.8247H119.352H110.056V55.8121Z" fill="#F6F7F8"/>
  <path fill-rule="evenodd" clip-rule="evenodd" d="M129.455 29.8245C129.455 29.3791 129.094 29.0181 128.649 29.0181H110.056C109.611 29.0181 109.25 29.3791 109.25 29.8245V55.8119C109.25 56.2573 109.611 56.6184 110.056 56.6184H128.649C129.094 56.6184 129.455 56.2573 129.455 55.8119V29.8245ZM127.842 30.631V55.0054H110.863V30.631H127.842Z" fill="#171A22"/>
  <path d="M86.1363 29.8247H101.641V45.3291H86.1363V29.8247Z" fill="#F6F7F8"/>
  <path fill-rule="evenodd" clip-rule="evenodd" d="M102.447 29.8245C102.447 29.3791 102.086 29.0181 101.641 29.0181H86.1364C85.691 29.0181 85.3299 29.3791 85.3299 29.8245V45.3289C85.3299 45.7743 85.691 46.1354 86.1364 46.1354H101.641C102.086 46.1354 102.447 45.7743 102.447 45.3289V29.8245ZM100.834 30.631V44.5224H86.9429V30.631H100.834Z" fill="#171A22"/>
  <path fill-rule="evenodd" clip-rule="evenodd" d="M119.353 29.0181C118.907 29.0181 118.546 29.3791 118.546 29.8245V55.8119C118.546 56.2573 118.907 56.6184 119.353 56.6184C119.798 56.6184 120.159 56.2573 120.159 55.8119V29.8245C120.159 29.3791 119.798 29.0181 119.353 29.0181Z" fill="#171A22"/>
  <path fill-rule="evenodd" clip-rule="evenodd" d="M93.8888 29.0181C93.4434 29.0181 93.0823 29.3791 93.0823 29.8245V45.3225C93.0823 45.7679 93.4434 46.129 93.8888 46.129C94.3342 46.129 94.6953 45.7679 94.6953 45.3225V29.8245C94.6953 29.3791 94.3342 29.0181 93.8888 29.0181Z" fill="#171A22"/>
  <path fill-rule="evenodd" clip-rule="evenodd" d="M94.6953 37.5765C94.6953 37.1311 94.3342 36.77 93.8888 36.77H86.462C86.0166 36.77 85.6556 37.1311 85.6556 37.5765C85.6556 38.0219 86.0166 38.383 86.462 38.383H93.8888C94.3342 38.383 94.6953 38.0219 94.6953 37.5765Z" fill="#171A22"/>
  <path d="M116.468 46.4133C116.116 46.4133 115.83 46.1276 115.83 45.7752C115.83 45.4229 116.116 45.1372 116.468 45.1372C116.821 45.1372 117.106 45.4229 117.106 45.7752C117.106 46.1276 116.821 46.4133 116.468 46.4133Z" fill="#171A22"/>
  <path d="M121.675 46.4133C121.323 46.4133 121.037 46.1276 121.037 45.7752C121.037 45.4229 121.323 45.1372 121.675 45.1372C122.028 45.1372 122.313 45.4229 122.313 45.7752C122.313 46.1276 122.028 46.4133 121.675 46.4133Z" fill="#171A22"/>
  <path d="M74.8879 0.806641H88.0762V14.9839H74.8879V0.806641Z" fill="white"/>
  <path fill-rule="evenodd" clip-rule="evenodd" d="M88.8828 0.806482C88.8828 0.361074 88.5217 0 88.0763 0H74.888C74.4426 0 74.0815 0.361074 74.0815 0.806482V14.9837C74.0815 15.4291 74.4426 15.7902 74.888 15.7902H88.0763C88.5217 15.7902 88.8828 15.4291 88.8828 14.9837V0.806482ZM87.2698 1.61296V14.1772H75.6945V1.61296H87.2698Z" fill="#171A22"/>
  <path d="M74.9076 14.9966C74.9076 18.627 77.8553 21.5748 81.4857 21.5748C85.1226 21.5748 88.0703 18.627 88.0703 14.9966H74.9076Z" fill="white"/>
  <path fill-rule="evenodd" clip-rule="evenodd" d="M88.876 14.9964C88.876 14.551 88.5149 14.1899 88.0695 14.1899H74.9067C74.4613 14.1899 74.1003 14.551 74.1003 14.9964C74.1003 19.0723 77.4091 22.3811 81.4849 22.3811C85.5666 22.3811 88.876 19.0728 88.876 14.9964ZM87.207 15.8029C86.8141 18.6065 84.4026 20.7681 81.4849 20.7681C78.5736 20.7681 76.1621 18.6069 75.7692 15.8029H87.207Z" fill="#171A22"/>
  <path d="M101.258 0.806641H114.446V14.9839H101.258V0.806641Z" fill="white"/>
  <path fill-rule="evenodd" clip-rule="evenodd" d="M115.253 0.806482C115.253 0.361074 114.892 0 114.446 0H101.258C100.813 0 100.452 0.361074 100.452 0.806482V14.9837C100.452 15.4291 100.813 15.7902 101.258 15.7902H114.446C114.892 15.7902 115.253 15.4291 115.253 14.9837V0.806482ZM113.64 1.61296V14.1772H102.065V1.61296H113.64Z" fill="#171A22"/>
  <path d="M101.278 14.9966C101.278 18.627 104.225 21.5748 107.856 21.5748C111.493 21.5748 114.44 18.627 114.44 14.9966H101.278Z" fill="white"/>
  <path fill-rule="evenodd" clip-rule="evenodd" d="M115.246 14.9964C115.246 14.551 114.885 14.1899 114.44 14.1899H101.277C100.831 14.1899 100.47 14.551 100.47 14.9964C100.47 19.0723 103.779 22.3811 107.855 22.3811C111.937 22.3811 115.246 19.0728 115.246 14.9964ZM113.577 15.8029C113.184 18.6065 110.773 20.7681 107.855 20.7681C104.944 20.7681 102.532 18.6069 102.139 15.8029H113.577Z" fill="#171A22"/>
  <path d="M127.628 0.806641H140.816V14.9839H127.628V0.806641Z" fill="white"/>
  <path fill-rule="evenodd" clip-rule="evenodd" d="M141.623 0.806482C141.623 0.361074 141.262 0 140.817 0H127.628C127.183 0 126.822 0.361074 126.822 0.806482V14.9837C126.822 15.4291 127.183 15.7902 127.628 15.7902H140.817C141.262 15.7902 141.623 15.4291 141.623 14.9837V0.806482ZM140.01 1.61296V14.1772H128.435V1.61296H140.01Z" fill="#171A22"/>
  <path d="M127.654 14.9966C127.654 18.627 130.601 21.5748 134.232 21.5748C137.869 21.5748 140.816 18.627 140.816 14.9966H127.654Z" fill="#F6F7F8"/>
  <path d="M127.654 14.9966C127.654 18.627 130.601 21.5748 134.232 21.5748C137.869 21.5748 140.816 18.627 140.816 14.9966H127.654Z" fill="white"/>
  <path fill-rule="evenodd" clip-rule="evenodd" d="M141.623 14.9964C141.623 14.551 141.262 14.1899 140.817 14.1899H127.654C127.208 14.1899 126.847 14.551 126.847 14.9964C126.847 19.0723 130.156 22.3811 134.232 22.3811C138.314 22.3811 141.623 19.0728 141.623 14.9964ZM139.954 15.8029C139.561 18.6065 137.15 20.7681 134.232 20.7681C131.321 20.7681 128.909 18.6069 128.516 15.8029H139.954Z" fill="#171A22"/>
  <path d="M287.661 279.521L276.949 274.334L282.748 248.283L294.022 250.943L287.661 279.521Z" fill="white"/>
  <path fill-rule="evenodd" clip-rule="evenodd" d="M282.138 247.311L276.022 274.782L288.227 280.691L294.982 250.342L282.138 247.311ZM293.062 251.546L287.095 278.351L277.874 273.886L283.358 249.256L293.062 251.546Z" fill="#171A22"/>
  <path d="M119.556 89.4236C119.556 89.4236 119.454 95.4659 119.518 104.475C133.293 110.294 145.767 106.172 149.308 102.631C149.398 102.542 146.82 86.5142 146.82 86.5142C145.55 87.8987 135.948 94.0622 119.556 89.4236Z" fill="white"/>
  <path fill-rule="evenodd" clip-rule="evenodd" d="M147.352 84.7417L146.226 85.9696C146 86.2162 145.255 86.8096 143.955 87.4915C142.676 88.162 140.906 88.8938 138.666 89.445C134.193 90.5459 127.836 90.9291 119.776 88.6482L118.768 88.3628L118.75 89.4106L119.557 89.4242C118.75 89.4106 118.75 89.4105 118.75 89.4106L118.746 89.6896C118.743 89.8731 118.74 90.145 118.735 90.4993C118.727 91.2079 118.716 92.2462 118.707 93.5661C118.69 96.2059 118.68 99.9724 118.712 104.481L118.716 105.012L119.205 105.218C126.238 108.19 132.949 108.626 138.364 107.862C143.742 107.103 147.938 105.142 149.879 103.202C150.015 103.065 150.064 102.918 150.077 102.877C150.097 102.816 150.105 102.766 150.108 102.74C150.116 102.688 150.117 102.644 150.117 102.626C150.118 102.584 150.115 102.546 150.114 102.522C150.11 102.471 150.104 102.409 150.096 102.344C150.081 102.212 150.057 102.028 150.026 101.803C149.963 101.351 149.869 100.713 149.755 99.9551C149.525 98.4374 149.211 96.4235 148.894 94.4141C148.578 92.4043 148.258 90.3975 148.018 88.8932C147.898 88.141 147.797 87.5144 147.727 87.0759L147.616 86.3874C147.616 86.3873 147.616 86.3867 146.82 86.5147L147.616 86.3867L147.352 84.7417ZM146.243 88.0092C146.296 88.3416 146.357 88.7247 146.425 89.1476C146.665 90.6513 146.985 92.6569 147.301 94.6652C147.618 96.6739 147.931 98.6837 148.16 100.196C148.274 100.953 148.367 101.582 148.428 102.024C148.444 102.135 148.457 102.232 148.468 102.316C146.733 103.855 143.054 105.571 138.138 106.265C133.112 106.975 126.884 106.6 120.321 103.935C120.294 99.6716 120.303 96.1054 120.32 93.5768C120.329 92.26 120.34 91.2247 120.348 90.5188C120.348 90.5042 120.348 90.4897 120.349 90.4753C128.207 92.5255 134.502 92.1309 139.052 91.0112C141.42 90.4283 143.313 89.6495 144.704 88.92C145.303 88.6058 145.819 88.2958 146.243 88.0092Z" fill="#171A22"/>
  <path d="M270.191 243.817C269.241 242.719 263.46 234.157 263.46 234.157C263.46 234.157 269.305 229.978 282.748 248.283C281.593 253.477 280.968 256.278 280.968 256.278" fill="#F6F7F8"/>
  <path fill-rule="evenodd" clip-rule="evenodd" d="M262.993 233.5C262.992 233.5 262.991 233.501 263.46 234.157C262.792 234.608 262.792 234.608 262.792 234.608L263.043 234.979C263.203 235.216 263.432 235.555 263.711 235.965C264.268 236.786 265.022 237.892 265.805 239.032C267.349 241.282 269.068 243.752 269.582 244.345C269.874 244.682 270.383 244.718 270.72 244.427C271.056 244.135 271.093 243.626 270.801 243.289C270.364 242.785 268.718 240.425 267.134 238.119C266.353 236.982 265.602 235.878 265.046 235.059C264.929 234.888 264.821 234.729 264.724 234.585C265.333 234.505 266.334 234.539 267.766 235.106C270.669 236.254 275.31 239.583 281.881 248.466C281.342 250.889 280.925 252.766 280.638 254.053L280.181 256.102L280.968 256.278L281.755 256.454L282.212 254.404C282.513 253.054 282.958 251.055 283.535 248.458C283.586 248.231 283.536 247.993 283.398 247.806C276.641 238.605 271.708 234.931 268.36 233.606C266.673 232.938 265.382 232.864 264.472 232.991C264.02 233.054 263.671 233.166 263.424 233.27C263.301 233.322 263.203 233.372 263.131 233.413C263.095 233.434 263.066 233.452 263.042 233.467C263.031 233.474 263.021 233.481 263.012 233.487L263 233.495L262.996 233.498L262.993 233.5ZM280.968 256.278L281.755 256.454C281.658 256.888 281.227 257.162 280.792 257.065C280.358 256.968 280.084 256.536 280.181 256.102L280.968 256.278ZM263.46 234.157L262.792 234.608C262.547 234.246 262.636 233.755 262.991 233.501L263.46 234.157Z" fill="#171A22"/>
  <path d="M109.75 62.0516C108.32 61.4455 87.8201 58.855 83.9026 58.4467C77.4329 57.7767 68.6088 52.4427 68.2706 55.8307C67.1668 59.8248 88.6113 71.0352 100.811 72.3049C105.717 72.8153 109.813 75.7184 113.259 79.5977" fill="#F6F7F8"/>
  <path fill-rule="evenodd" clip-rule="evenodd" d="M75.4215 57.018C78.0668 57.9218 81.1395 58.9717 83.8197 59.2492C85.7668 59.4522 91.8609 60.2005 97.6525 60.9747C100.547 61.3616 103.36 61.7542 105.537 62.0876C106.626 62.2544 107.55 62.4055 108.244 62.533C108.591 62.5968 108.874 62.6536 109.088 62.7024C109.195 62.7268 109.279 62.748 109.343 62.7659C109.403 62.7829 109.43 62.7927 109.434 62.7943C109.435 62.7945 109.435 62.7945 109.435 62.7944C109.845 62.9683 110.318 62.7769 110.492 62.3668C110.666 61.9568 110.475 61.4834 110.065 61.3095C109.901 61.2402 109.672 61.1813 109.446 61.1298C109.201 61.0738 108.893 61.0124 108.535 60.9466C107.819 60.8148 106.876 60.6609 105.781 60.4932C103.59 60.1576 100.765 59.7634 97.8662 59.3759C92.0715 58.6013 85.9574 57.8503 83.9863 57.6449L83.9858 57.6448C81.5082 57.3883 78.675 56.4219 76.042 55.5239C75.3567 55.2902 74.6851 55.0611 74.0367 54.8503C72.5209 54.3576 71.0802 53.9489 69.9743 53.9103C69.4207 53.891 68.8341 53.9579 68.3499 54.2574C67.8347 54.5761 67.5513 55.0836 67.4757 55.6855C67.2742 56.5348 67.6753 57.3899 68.2003 58.1091C68.7655 58.8835 69.6229 59.7057 70.6709 60.542C72.7745 62.2206 75.7845 64.064 79.1841 65.8074C85.9702 69.2875 94.4841 72.4576 100.727 73.1074L100.727 73.1074C105.353 73.5886 109.278 76.3308 112.656 80.1336C112.952 80.4666 113.461 80.4968 113.794 80.201C114.128 79.9052 114.158 79.3955 113.862 79.0625C110.349 75.1067 106.082 72.0428 100.894 71.5031C94.9381 70.8832 86.6302 67.8133 79.9201 64.3722C76.5717 62.655 73.665 60.8676 71.677 59.2812C70.6792 58.4851 69.947 57.7663 69.5031 57.1581C69.0332 56.5144 69.0131 56.1724 69.0481 56.0459C69.0603 56.0018 69.0687 55.9567 69.0733 55.9112C69.0949 55.6947 69.1597 55.6531 69.1984 55.6291C69.2868 55.5745 69.4956 55.5075 69.918 55.5223C70.7639 55.5518 71.9969 55.8833 73.5381 56.3843C74.131 56.577 74.763 56.793 75.4215 57.018Z" fill="#171A22"/>
  <path d="M141.965 70.3909C140.746 68.4194 139.215 66.4797 137.301 64.706C135.265 62.8238 133.217 60.9671 130.487 60.4566C110.025 56.6412 111.607 49.7312 108.296 48.4232C107.058 47.9319 105.699 48.6465 105.284 49.9162C102.808 57.5727 116.89 69.185 116.89 69.185" fill="#F6F7F8"/>
  <path fill-rule="evenodd" clip-rule="evenodd" d="M106.05 50.1663C106.335 49.2951 107.234 48.8701 107.997 49.1731L107.998 49.1736C108.574 49.4009 108.971 49.8725 109.625 50.788C109.672 50.8528 109.719 50.9193 109.767 50.9872C110.377 51.8439 111.154 52.9364 112.413 54.0937C115.141 56.6016 120.024 59.3267 130.338 61.2498C132.804 61.7109 134.689 63.39 136.752 65.2981C138.608 67.018 140.094 68.8998 141.278 70.8153C141.512 71.1942 142.009 71.3114 142.388 71.0773C142.767 70.8431 142.884 70.3461 142.65 69.9672C141.397 67.9397 139.82 65.9424 137.848 64.1148L137.847 64.1142C135.84 62.2581 133.629 60.2241 130.634 59.6642C120.485 57.7719 115.928 55.1341 113.504 52.9062C112.374 51.8667 111.683 50.8972 111.075 50.0434C111.029 49.9783 110.983 49.9138 110.938 49.8501C110.318 48.9828 109.671 48.1002 108.591 47.6735L108.295 48.4235L108.592 47.6739C108.592 47.6738 108.591 47.6736 108.591 47.6735C106.879 46.9949 105.061 47.9988 104.516 49.6662L104.516 49.6684C103.808 51.8558 104.307 54.2398 105.316 56.4877C106.331 58.747 107.909 60.9803 109.538 62.9379C111.17 64.9007 112.878 66.6156 114.174 67.8381C114.823 68.45 115.371 68.9404 115.758 69.2785C115.951 69.4477 116.104 69.5788 116.21 69.6682C116.263 69.713 116.303 69.7472 116.331 69.7706L116.364 69.7974L116.372 69.8046L116.375 69.8072C116.376 69.8074 116.376 69.8076 116.889 69.1854L116.375 69.8072C116.719 70.0906 117.228 70.0421 117.511 69.6985C117.795 69.3548 117.746 68.8465 117.402 68.5631L117.394 68.5564L117.366 68.533C117.341 68.512 117.303 68.4801 117.253 68.4379C117.153 68.3535 117.006 68.2277 116.82 68.0643C116.446 67.7375 115.913 67.2608 115.281 66.6645C114.014 65.4704 112.356 63.8038 110.778 61.9064C109.195 60.0038 107.718 57.8984 106.788 55.8271C105.853 53.7449 105.52 51.8068 106.05 50.1663Z" fill="#171A22"/>
  <path fill-rule="evenodd" clip-rule="evenodd" d="M257.36 102.505C256.962 102.304 256.477 102.463 256.276 102.861C256.269 102.876 256.261 102.891 256.253 102.907C255.956 103.496 255.446 104.506 254.431 105.255C253.431 105.993 251.837 106.548 249.229 105.918C248.796 105.813 248.36 106.08 248.256 106.513C248.151 106.946 248.417 107.381 248.85 107.486C251.869 108.215 253.964 107.605 255.39 106.552C256.719 105.571 257.375 104.265 257.68 103.66C257.692 103.635 257.704 103.611 257.716 103.588C257.917 103.191 257.757 102.706 257.36 102.505Z" fill="#171A22"/>
</svg>
