<svg width="16" height="15" viewBox="0 0 16 15" fill="none" xmlns="http://www.w3.org/2000/svg">
<path d="M7.732 14.0395C7.814 14.0914 7.907 14.1176 8 14.1176C8.093 14.1176 8.186 14.0914 8.2675 14.0395C11.262 12.1245 13.6085 9.81681 15.242 7.18034C15.7595 6.34538 16 5.51244 16 4.5595C16 3.47798 15.5805 2.04857 14.8185 1.28017C14.7185 1.17933 14.6145 1.08303 14.507 0.991765C13.7425 0.343361 12.7805 0.000504165 11.7245 0.000504165C10.2295 0.000504165 8.8215 0.796134 7.9995 2.06723C7.174 0.79563 5.7465 0 4.224 0C3.2025 0 2.258 0.342857 1.492 0.992269C1.385 1.08303 1.2815 1.17882 1.1815 1.28017C0.4195 2.04857 0 3.47748 0 4.5595C0 5.51244 0.241 6.34538 0.758 7.18034C2.3905 9.8163 4.737 12.124 7.732 14.0395Z" fill="#FF642D"/>
</svg>
