<svg width="16" height="15" viewBox="0 0 16 15" fill="none" xmlns="http://www.w3.org/2000/svg">
<mask id="path-1-inside-1" fill="white">
<path d="M7.732 14.0395C7.814 14.0914 7.907 14.1176 8 14.1176C8.093 14.1176 8.186 14.0914 8.2675 14.0395C11.262 12.1245 13.6085 9.81681 15.242 7.18034C15.7595 6.34538 16 5.51244 16 4.5595C16 3.47798 15.5805 2.04857 14.8185 1.28017C14.7185 1.17933 14.6145 1.08303 14.507 0.991765C13.7425 0.343361 12.7805 0.000504165 11.7245 0.000504165C10.2295 0.000504165 8.8215 0.796134 7.9995 2.06723C7.174 0.79563 5.7465 0 4.224 0C3.2025 0 2.258 0.342857 1.492 0.992269C1.385 1.08303 1.2815 1.17882 1.1815 1.28017C0.4195 2.04857 0 3.47748 0 4.5595C0 5.51244 0.241 6.34538 0.758 7.18034C2.3905 9.8163 4.737 12.124 7.732 14.0395Z"/>
</mask>
<path d="M7.732 14.0395L6.97769 15.2189L6.98294 15.2222L7.732 14.0395ZM0.758 7.18034L-0.432294 7.91736L-0.432227 7.91746L0.758 7.18034ZM1.1815 1.28017L2.17559 2.26597L2.17804 2.26348L1.1815 1.28017ZM1.492 0.992269L0.586659 -0.0756066L0.586415 -0.0753993L1.492 0.992269ZM7.9995 2.06723L6.82524 2.82954C7.08366 3.2276 7.52614 3.46764 8.00073 3.46723C8.47532 3.46681 8.91738 3.22599 9.1751 2.82747L7.9995 2.06723ZM14.507 0.991765L15.413 -0.0755112L15.4126 -0.0759291L14.507 0.991765ZM14.8185 1.28017L15.8126 0.294369L15.8126 0.294367L14.8185 1.28017ZM15.242 7.18034L14.052 6.4428L14.0519 6.44298L15.242 7.18034ZM8.2675 14.0395L9.01983 15.2202L9.02175 15.2189L8.2675 14.0395ZM8 12.7176C8.17059 12.7176 8.33762 12.7659 8.48106 12.8567L6.98294 15.2222C7.29038 15.417 7.64341 15.5176 8 15.5176V12.7176ZM8.4863 12.8601C5.64194 11.041 3.45522 8.87652 1.94823 6.44321L-0.432227 7.91746C1.32578 10.7561 3.83205 13.2071 6.9777 15.2189L8.4863 12.8601ZM1.94829 6.44331C1.56389 5.8225 1.4 5.24365 1.4 4.5595H-1.4C-1.4 5.78123 -1.08189 6.86825 -0.432294 7.91736L1.94829 6.44331ZM1.4 4.5595C1.4 4.18349 1.47578 3.70784 1.63046 3.25294C1.78872 2.78755 1.99309 2.44999 2.17558 2.26597L0.187417 0.294369C-0.392093 0.878749 -0.778468 1.63985 -1.02046 2.35151C-1.26603 3.07368 -1.4 3.85348 -1.4 4.5595H1.4ZM2.17804 2.26348C2.24855 2.19202 2.32166 2.12433 2.39759 2.05994L0.586415 -0.0753993C0.448338 0.0417162 0.31445 0.165622 0.184962 0.296851L2.17804 2.26348ZM2.39734 2.06014C2.90549 1.62934 3.52757 1.4 4.224 1.4V-1.4C2.87743 -1.4 1.61051 -0.943626 0.586659 -0.0756066L2.39734 2.06014ZM4.224 1.4C5.26068 1.4 6.2515 1.94575 6.82524 2.82954L9.17376 1.30492C8.0965 -0.354486 6.23232 -1.4 4.224 -1.4V1.4ZM9.1751 2.82747C9.75116 1.93669 10.7262 1.4005 11.7245 1.4005V-1.3995C9.73277 -1.3995 7.89184 -0.344419 6.8239 1.30698L9.1751 2.82747ZM11.7245 1.4005C12.4678 1.4005 13.104 1.63759 13.6014 2.05946L15.4126 -0.0759291C14.381 -0.950863 13.0932 -1.3995 11.7245 -1.3995V1.4005ZM13.601 2.05904C13.6777 2.12416 13.7523 2.19326 13.8244 2.26597L15.8126 0.294367C15.6847 0.1654 15.5513 0.0418888 15.413 -0.0755111L13.601 2.05904ZM13.8244 2.26597C14.0068 2.44992 14.2112 2.78755 14.3695 3.25309C14.5242 3.70811 14.6 4.18378 14.6 4.5595H17.4C17.4 3.85369 17.266 3.0739 17.0205 2.35175C16.7785 1.6401 16.3922 0.878816 15.8126 0.294369L13.8244 2.26597ZM14.6 4.5595C14.6 5.24411 14.4364 5.82269 14.052 6.4428L16.432 7.91787C17.0826 6.86807 17.4 5.78076 17.4 4.5595H14.6ZM14.0519 6.44298C12.5438 8.87702 10.357 11.0415 7.51325 12.86L9.02175 15.2189C12.167 13.2076 14.6732 10.7566 16.4321 7.91769L14.0519 6.44298ZM7.51517 12.8588C7.66148 12.7656 7.83007 12.7176 8 12.7176V15.5176C8.35593 15.5176 8.71052 15.4173 9.01983 15.2202L7.51517 12.8588Z" fill="currentColor" mask="url(#path-1-inside-1)"/>
</svg>
