<svg width="19" height="19" viewBox="0 0 19 19" fill="none" xmlns="http://www.w3.org/2000/svg">
<path d="M9.40102 5.11816C6.8607 5.11816 4.75586 7.18671 4.75586 9.76332C4.75586 12.3399 6.82441 14.4085 9.40102 14.4085C11.9776 14.4085 14.0462 12.3036 14.0462 9.76332C14.0462 7.223 11.9413 5.11816 9.40102 5.11816ZM9.40102 12.7391C7.76796 12.7391 6.42521 11.3964 6.42521 9.76332C6.42521 8.13026 7.76796 6.78752 9.40102 6.78752C11.0341 6.78752 12.3768 8.13026 12.3768 9.76332C12.3768 11.3964 11.0341 12.7391 9.40102 12.7391Z" fill="currentColor"/>
<path d="M14.2262 6.06187C14.8075 6.06187 15.2787 5.59069 15.2787 5.00945C15.2787 4.42822 14.8075 3.95703 14.2262 3.95703C13.645 3.95703 13.1738 4.42822 13.1738 5.00945C13.1738 5.59069 13.645 6.06187 14.2262 6.06187Z" fill="currentColor"/>
<path d="M16.9488 2.28771C16.0052 1.30787 14.6625 0.799805 13.1383 0.799805H5.66249C2.50523 0.799805 0.400391 2.90464 0.400391 6.0619V13.5014C0.400391 15.0619 0.908455 16.4046 1.92458 17.3845C2.90442 18.328 4.21087 18.7998 5.69878 18.7998H13.102C14.6625 18.7998 15.9689 18.2917 16.9125 17.3845C17.8923 16.4409 18.4004 15.0982 18.4004 13.5377V6.0619C18.4004 4.53771 17.8923 3.23126 16.9488 2.28771ZM16.8036 13.5377C16.8036 14.6627 16.4044 15.57 15.7512 16.1869C15.098 16.8038 14.1907 17.1304 13.102 17.1304H5.69878C4.61007 17.1304 3.70281 16.8038 3.04958 16.1869C2.39636 15.5337 2.06975 14.6264 2.06975 13.5014V6.0619C2.06975 4.97319 2.39636 4.06593 3.04958 3.41271C3.66652 2.79577 4.61007 2.46916 5.69878 2.46916H13.1746C14.2633 2.46916 15.1706 2.79577 15.8238 3.449C16.4407 4.10222 16.8036 5.00948 16.8036 6.0619V13.5377Z" fill="currentColor"/>
</svg>
