<svg width="22" height="22" viewBox="0 0 22 22" fill="none" xmlns="http://www.w3.org/2000/svg">
  <path
    d="M22 11C22 13.0286 21.439 15.0178 20.379 16.7475C19.3191 18.4772 17.8014 19.8801 15.9939 20.8011C14.1864 21.7221 12.1593 22.1253 10.137 21.9661C8.11456 21.8069 6.17557 21.0916 4.53436 19.8992C2.89315 18.7068 1.61365 17.0837 0.837325 15.2095C0.0609962 13.3353 -0.181922 11.2829 0.135428 9.27922C0.452778 7.27555 1.31803 5.39867 2.63553 3.85607C3.95303 2.31348 5.67146 1.16526 7.60081 0.538379L8.28065 2.6307C6.73716 3.13221 5.36243 4.05078 4.30843 5.28486C3.25443 6.51893 2.56222 8.02044 2.30834 9.62338C2.05446 11.2263 2.2488 12.8682 2.86986 14.3676C3.49092 15.867 4.51452 17.1654 5.82749 18.1194C7.14046 19.0733 8.69165 19.6455 10.3096 19.7729C11.9275 19.9002 13.5491 19.5776 14.9951 18.8409C16.4411 18.1041 17.6553 16.9818 18.5032 15.598C19.3512 14.2142 19.8 12.6229 19.8 11H22Z"
    fill="url(#icon_loading_linear)"
  />
  <defs>
    <linearGradient id="icon_loading_linear" x1="17.5" y1="16" x2="-8" y2="-10.5" gradientUnits="userSpaceOnUse">
      <stop stop-color="white" />
      <stop offset="1" stop-color="white" stop-opacity="0" />
    </linearGradient>
  </defs>
</svg>
