<svg width="14" height="17" viewBox="0 0 14 17" xmlns="http://www.w3.org/2000/svg">
  <path d="M4.86059 0.433967C4.86059 0.433967 4.95776 1.50966 4.81076 2.83263C4.69858 3.84229 4.43031 4.97183 3.91235 5.85131C3.63502 4.72485 2.9445 3.98426 2.31087 3.35064C2.07273 3.11261 1.66502 3.25227 1.62283 3.58631C1.42566 5.16369 1.04136 6.23999 0.690415 7.20288C0.339474 8.16578 -0.000221017 9.03884 1.07898e-07 10.1116C0.000842335 14.1964 3.68384 17.0087 6.88359 17C10.6928 16.9896 13.7672 13.9133 13.7672 10.1164C13.7672 8.42923 13.3334 6.70337 12.0668 5.01459C11.8335 4.7028 11.3375 4.86794 11.3377 5.25738C11.3377 6.32401 10.9318 6.94536 10.4306 7.5216C10.3293 6.14739 10.0652 4.75021 9.41986 3.50248C8.62155 1.95909 7.3166 0.655535 5.39204 0.0140235C5.06406 -0.0542372 4.84926 0.133252 4.86059 0.433967Z" fill="currentColor"/>
</svg>
