<svg width="15" height="15" viewBox="0 0 15 15" fill="none" xmlns="http://www.w3.org/2000/svg">
<path fill-rule="evenodd" clip-rule="evenodd" d="M9.42426 0.567602C9.18995 0.333287 8.77839 0.364945 8.50502 0.638312C8.23166 0.911679 8.2 1.32324 8.43431 1.55755L11.9854 5.10867H6.60273H6.56351H6.56348C5.44503 5.10866 4.48541 5.10865 3.70352 5.201C2.90885 5.29487 2.19013 5.49391 1.62339 5.97503C1.04798 6.46352 0.72799 7.15726 0.545303 8.02733C0.364287 8.88943 0.302734 9.99992 0.302734 11.4087V14C0.302734 14.3866 0.616135 14.7 1.00273 14.7C1.38933 14.7 1.70273 14.3866 1.70273 14V11.4087C1.70273 10.0174 1.76574 9.02791 1.91543 8.31501C2.06344 7.61008 2.2803 7.25382 2.52944 7.04231C2.78726 6.82343 3.18082 6.67247 3.86774 6.59134C4.55829 6.50977 5.43624 6.50867 6.60273 6.50867H11.9716L8.42426 10.056C8.18995 10.2903 8.22161 10.7019 8.49498 10.9752C8.76834 11.2486 9.1799 11.2803 9.41421 11.0459L14.2225 6.23761C14.3144 6.14573 14.3654 6.02659 14.377 5.89923C14.4146 5.70619 14.3681 5.51142 14.2326 5.37593L9.42426 0.567602Z" fill="currentColor"/>
</svg>
