<svg width="191" height="26" viewBox="0 0 191 26" fill="none" xmlns="http://www.w3.org/2000/svg">
  <path d="M69.3525 20.9918H84.1081V17.2804H73.2663V14.4913H84.1081V10.8699H73.2663V8.44062H84.1081V4.72925H69.3525V20.9918Z" fill="white"/>
  <path d="M61.2085 10.9371L57.4071 10.5097C55.0903 10.2398 53.8532 9.99235 53.8532 8.98016C53.8532 8.01295 55.6077 7.72054 58.5318 7.72054C61.4559 7.72054 63.8402 8.17041 66.157 9.02515V5.29128C64.47 4.79643 62.2881 4.25659 58.5318 4.25659C53.5158 4.25659 49.8944 5.65117 49.8944 9.13761C49.8944 12.6465 53.2909 13.6587 56.08 13.9512L59.9264 14.3785C62.4231 14.6484 63.2779 14.8959 63.2779 15.9755C63.2779 16.9427 61.5459 17.7075 58.3294 17.7075C55.0678 17.7075 52.1662 17.0777 49.9619 16.088L49.9394 19.7319C51.8288 20.6766 53.7407 21.5314 58.3294 21.5314C62.9854 21.5314 67.0567 19.372 67.0567 15.8406C67.0792 12.2867 64.425 11.297 61.2085 10.9371Z" fill="white"/>
  <path d="M164.767 10.9371L160.966 10.5097C158.649 10.2398 157.412 9.99235 157.412 8.98016C157.412 8.01295 159.167 7.72054 162.091 7.72054C165.015 7.72054 167.399 8.17041 169.716 9.02515V5.29128C168.029 4.79643 165.847 4.25659 162.091 4.25659C157.075 4.25659 153.453 5.65117 153.453 9.13761C153.453 12.6465 156.85 13.6587 159.639 13.9512L163.485 14.3785C165.982 14.6484 166.837 14.8959 166.837 15.9755C166.837 16.9427 165.105 17.7075 161.888 17.7075C158.627 17.7075 155.725 17.0777 153.521 16.088L153.498 19.7319C155.388 20.6766 157.3 21.5314 161.888 21.5314C166.544 21.5314 170.616 19.372 170.616 15.8406C170.616 12.2867 167.984 11.297 164.767 10.9371Z" fill="white"/>
  <path d="M99.1085 18.4276H98.7711L94.4075 4.72925H87.3446V20.9918H91.101V7.63087H91.3259L95.6896 20.9918H101.875L106.239 7.63087H106.464V20.9918H110.355V4.72925H103.472L99.1085 18.4276Z" fill="white"/>
  <path d="M186.741 4.72925V10.6899H176.844V4.72925H172.93V20.9918H176.844V14.4238H186.741V20.9918H190.453V4.72925H186.741Z" fill="white"/>
  <path d="M147.063 12.8943C147.13 16.2233 145.151 17.5729 142.272 17.5729C139.505 17.5729 137.391 16.1333 137.458 12.8943L137.548 4.72925H133.634L133.544 13.2317C133.477 18.2701 137.391 21.4642 142.272 21.4642C147.13 21.4642 150.931 18.2701 150.954 13.2317L151.021 4.72925H147.108L147.063 12.8943Z" fill="white"/>
  <path d="M131.342 10.1276C131.342 7.13602 129.25 4.72925 125.966 4.72925H117.734H114.112H113.82V21.0143H117.734V15.481H122.615L127.383 21.0143H131.68V20.452L127.181 15.346C129.745 14.8512 131.342 12.6918 131.342 10.1276ZM117.734 8.44062H125.426C126.686 8.44062 127.316 9.29537 127.316 10.3975C127.316 11.4097 126.686 12.242 125.426 12.242H117.734V8.44062Z" fill="white"/>
  <path d="M37.2761 12.8037C37.2761 13.5909 36.8712 13.7259 35.8815 13.7259C34.8244 13.7259 34.6219 13.5459 34.5094 12.7587C34.307 10.7118 32.9349 8.97983 30.6181 8.79988C29.8983 8.7324 29.6959 8.46248 29.6959 7.54026C29.6959 6.68552 29.8084 6.30314 30.4832 6.30314C34.5094 6.28064 37.2761 9.49717 37.2761 12.8037ZM43.1243 12.8037C43.1243 6.68552 38.9856 0.22998 29.426 0.22998H10.4642C9.67699 0.22998 9.54203 0.904774 10.2168 1.33214C11.9488 2.4793 14.3781 3.76141 16.5149 4.57116C17.4146 4.90856 17.2347 5.71831 16.335 5.71831H1.30952C0.567248 5.71831 0.36481 6.32563 0.972125 6.88796C4.66101 10.3069 9.92441 13.7934 14.9179 15.9527C15.8176 16.3351 15.6377 17.1448 14.7379 17.1448H8.01249C7.24772 17.1448 7.04529 17.7747 7.6751 18.2695C11.2965 21.0137 19.7314 25.7147 29.426 25.7147C39.1205 25.7147 43.1243 18.4495 43.1243 12.8037ZM30.4832 21.4635C25.7371 21.4635 21.7783 17.5947 21.7783 12.7812C21.7783 8.03511 25.7371 4.23376 30.4832 4.23376C35.3642 4.23376 39.1655 8.03511 39.1655 12.7812C39.1655 17.5947 35.3642 21.4635 30.4832 21.4635Z" fill="#FF642D"/>
</svg>
