<svg width="65" height="18" viewBox="0 0 65 14" fill="none" xmlns="http://www.w3.org/2000/svg">
  <path d="M9.17136 3.992C8.70736 2.008 7.15536 0.855999 4.85136 0.855999C2.46736 0.855999 0.579359 2.248 0.579359 4.264C0.579359 6.792 2.69136 7.256 4.57936 7.672C6.06736 8.008 7.39536 8.296 7.39536 9.576C7.39536 10.92 6.25936 11.528 4.86736 11.528C3.28336 11.528 2.22736 10.744 1.89136 9.176L0.0673594 9.656C0.579359 11.784 2.16336 13.144 4.86736 13.144C7.44336 13.144 9.25136 11.752 9.25136 9.528C9.25136 7.016 7.15536 6.472 5.28336 6.04C3.77936 5.704 2.43536 5.432 2.43536 4.184C2.43536 3.08 3.36336 2.44 4.85136 2.44C6.19536 2.44 7.12336 3.24 7.37936 4.44L9.17136 3.992ZM14.6801 13.144C16.6001 13.144 17.9761 12.184 18.4081 10.6L16.8241 10.312C16.5361 11.16 15.8481 11.688 14.6801 11.688C13.3521 11.688 12.4081 10.952 12.2481 9.48H18.4081C18.4401 9.224 18.4721 8.952 18.4721 8.712C18.4721 6.456 16.8721 4.904 14.5841 4.904C12.2321 4.904 10.5361 6.648 10.5361 9.016C10.5361 11.416 12.1201 13.144 14.6801 13.144ZM14.5841 6.296C15.7521 6.296 16.5521 7 16.7121 8.152H12.3121C12.5841 6.92 13.5281 6.296 14.5841 6.296ZM20.3945 13H22.0425V8.136C22.0425 6.92 22.8585 6.44 23.7225 6.44C24.6025 6.44 25.1945 6.984 25.1945 8.072V13H26.8585V8.088C26.8585 6.904 27.6585 6.44 28.5225 6.44C29.4025 6.44 30.0105 6.984 30.0105 8.072V13H31.6745V7.96C31.6745 5.944 30.4265 4.904 28.8585 4.904C27.7385 4.904 26.9545 5.432 26.4265 6.184C25.9465 5.336 25.0825 4.904 24.0905 4.904C23.1465 4.904 22.4745 5.336 21.9945 5.944L21.9305 5.048H20.3945V13ZM34.0039 13H35.6519V8.856C35.6519 7.352 36.5799 6.536 37.6839 6.536C37.9559 6.536 38.2279 6.568 38.4999 6.648L38.7239 5.032C38.4199 4.952 38.2119 4.92 37.9399 4.92C36.8839 4.92 36.1159 5.4 35.6519 6.136L35.5719 5.048H34.0039V13ZM41.5536 5.048H39.9056V9.96C39.9056 12.04 41.2336 13.144 42.9296 13.144C44.0336 13.144 44.8016 12.776 45.3296 12.072L45.3936 13H46.9136V5.048H45.2496V9.592C45.2496 11.08 44.2896 11.624 43.3616 11.624C42.2256 11.624 41.5536 11 41.5536 9.816V5.048ZM52.0825 13.144C54.2585 13.144 55.3305 12.04 55.3305 10.584C55.3305 8.76 53.7145 8.488 52.3705 8.264C51.4105 8.104 50.5945 7.976 50.5945 7.256C50.5945 6.664 51.1865 6.264 52.0825 6.264C52.8985 6.264 53.4265 6.632 53.6345 7.416L55.2825 7.064C54.8505 5.672 53.7785 4.904 52.0825 4.904C50.2265 4.904 48.8985 5.928 48.8985 7.336C48.8985 9.128 50.4025 9.448 51.7145 9.672C52.7225 9.848 53.6185 9.96 53.6185 10.696C53.6185 11.416 53.0105 11.784 52.0985 11.784C51.0905 11.784 50.4665 11.32 50.2585 10.392L48.5785 10.744C48.9945 12.392 50.3065 13.144 52.0825 13.144ZM57.0039 13H58.6519V8.552C58.6519 7.032 59.6759 6.44 60.6839 6.44C61.7399 6.44 62.5239 7.112 62.5239 8.44V13H64.1879V8.216C64.1879 6.024 62.7639 4.904 61.0679 4.904C60.0279 4.904 59.2119 5.336 58.6519 5.976V0.999999H57.0039V13Z" fill="currentColor"/>
</svg>
