<svg width="18" height="17" viewBox="0 0 18 17" fill="none" xmlns="http://www.w3.org/2000/svg">
<path d="M3.58702 10.7471C3.58702 11.7352 2.78843 12.5338 1.80035 12.5338C0.812261 12.5338 0.0136719 11.7352 0.0136719 10.7471C0.0136719 9.75904 0.812261 8.96045 1.80035 8.96045H3.58702V10.7471ZM4.48036 10.7471C4.48036 9.75904 5.27895 8.96045 6.26703 8.96045C7.25512 8.96045 8.0537 9.75904 8.0537 10.7471V15.2138C8.0537 16.2019 7.25512 17.0005 6.26703 17.0005C5.27895 17.0005 4.48036 16.2019 4.48036 15.2138V10.7471Z" fill="currentColor"/>
<path d="M6.26689 3.57335C5.27881 3.57335 4.48022 2.77476 4.48022 1.78667C4.48022 0.798589 5.27881 0 6.26689 0C7.25498 0 8.05357 0.798589 8.05357 1.78667V3.57335H6.26689ZM6.26689 4.48022C7.25498 4.48022 8.05357 5.27881 8.05357 6.26689C8.05357 7.25498 7.25498 8.05357 6.26689 8.05357H1.78667C0.798589 8.05357 0 7.25498 0 6.26689C0 5.27881 0.798589 4.48022 1.78667 4.48022H6.26689Z" fill="currentColor"/>
<path d="M13.4276 6.26689C13.4276 5.27881 14.2262 4.48022 15.2143 4.48022C16.2024 4.48022 17.001 5.27881 17.001 6.26689C17.001 7.25498 16.2024 8.05357 15.2143 8.05357H13.4276V6.26689ZM12.5343 6.26689C12.5343 7.25498 11.7357 8.05357 10.7476 8.05357C9.75953 8.05357 8.96094 7.25498 8.96094 6.26689V1.78667C8.96094 0.798589 9.75953 0 10.7476 0C11.7357 0 12.5343 0.798589 12.5343 1.78667V6.26689Z" fill="currentColor"/>
<path d="M10.7476 13.4271C11.7357 13.4271 12.5343 14.2257 12.5343 15.2138C12.5343 16.2019 11.7357 17.0005 10.7476 17.0005C9.75953 17.0005 8.96094 16.2019 8.96094 15.2138V13.4271H10.7476ZM10.7476 12.5338C9.75953 12.5338 8.96094 11.7352 8.96094 10.7471C8.96094 9.75904 9.75953 8.96045 10.7476 8.96045H15.2278C16.2159 8.96045 17.0145 9.75904 17.0145 10.7471C17.0145 11.7352 16.2159 12.5338 15.2278 12.5338H10.7476Z" fill="currentColor"/>
</svg>
