<svg width="19" height="16" viewBox="0 0 19 16" fill="none" xmlns="http://www.w3.org/2000/svg">
<path fill-rule="evenodd" clip-rule="evenodd" d="M18.4004 2.13196C17.7371 2.42467 17.0255 2.62338 16.279 2.712C17.0416 2.25549 17.627 1.53044 17.9009 0.668439C17.1866 1.09273 16.3971 1.39886 15.5566 1.56535C14.8826 0.848358 13.9239 0.399902 12.8605 0.399902C10.8223 0.399902 9.16811 2.05409 9.16811 4.09228C9.16811 4.3823 9.20033 4.66426 9.26478 4.9328C6.19541 4.77973 3.47513 3.30815 1.65446 1.07393C1.33758 1.61906 1.15498 2.2528 1.15498 2.92952C1.15498 4.21043 1.80752 5.34097 2.79842 6.00157C2.19421 5.98278 1.62492 5.81628 1.12544 5.53969C1.12544 5.5558 1.12544 5.56923 1.12544 5.58534C1.12544 7.37379 2.3983 8.86686 4.0874 9.20521C3.77858 9.28846 3.45096 9.33411 3.11529 9.33411C2.8763 9.33411 2.64536 9.30994 2.41979 9.26698C2.88972 10.7332 4.25389 11.802 5.86779 11.8315C4.60299 12.8224 3.01325 13.4132 1.28119 13.4132C0.983115 13.4132 0.69041 13.3944 0.400391 13.3622C2.03309 14.4095 3.97461 15.0217 6.06114 15.0217C12.8524 15.0217 16.5663 9.39587 16.5663 4.51657C16.5663 4.35544 16.5636 4.19701 16.5555 4.03857C17.2779 3.51761 17.9036 2.86775 18.3977 2.12659L18.4004 2.13196Z" fill="currentColor"/>
</svg>
