<svg viewBox="0 0 52 17" fill="currentColor" xmlns="http://www.w3.org/2000/svg">
  <path d="M9.03073 16.2565C8.52666 15.9205 8.1696 15.3954 7.95958 14.6603C7.74955 13.9462 7.64453 12.9801 7.64453 11.8039V10.1867C7.64453 8.98951 7.77055 8.02338 8.00158 7.28828C8.25362 6.55318 8.63167 6.0281 9.13574 5.69206C9.66081 5.35601 10.3329 5.18799 11.173 5.18799C11.9921 5.18799 12.6642 5.35601 13.1683 5.69206C13.6724 6.0281 14.0294 6.57418 14.2605 7.28828C14.4915 8.00238 14.6175 8.96851 14.6175 10.1867V11.8039C14.6175 13.0011 14.5125 13.9462 14.2815 14.6813C14.0504 15.3954 13.6934 15.9415 13.1893 16.2775C12.6852 16.6136 11.9921 16.7816 11.131 16.7816C10.2489 16.7606 9.5348 16.5926 9.03073 16.2565ZM11.8661 14.4923C12.0131 14.1352 12.0762 13.5261 12.0762 12.707V9.22054C12.0762 8.42243 12.0131 7.83435 11.8661 7.4563C11.7191 7.07825 11.4881 6.91023 11.131 6.91023C10.795 6.91023 10.5429 7.09925 10.4169 7.4563C10.2699 7.83435 10.2069 8.42243 10.2069 9.22054V12.707C10.2069 13.5261 10.2699 14.1352 10.4169 14.4923C10.5429 14.8493 10.795 15.0383 11.152 15.0383C11.4881 15.0383 11.7191 14.8703 11.8661 14.4923Z" />
  <path d="M47.7996 11.8249V12.392C47.7996 13.1061 47.8206 13.6522 47.8626 14.0092C47.9046 14.3663 47.9886 14.6393 48.1357 14.7863C48.2617 14.9543 48.4717 15.0384 48.7658 15.0384C49.1438 15.0384 49.3958 14.8913 49.5429 14.5973C49.6899 14.3033 49.7529 13.8202 49.7739 13.1271L51.9372 13.2531C51.9582 13.3581 51.9582 13.4841 51.9582 13.6522C51.9582 14.6813 51.6852 15.4584 51.1181 15.9625C50.551 16.4666 49.7529 16.7186 48.7237 16.7186C47.4846 16.7186 46.6235 16.3195 46.1194 15.5424C45.6153 14.7653 45.3633 13.5682 45.3633 11.9299V9.97666C45.3633 8.29643 45.6153 7.07826 46.1404 6.30115C46.6655 5.52405 47.5476 5.146 48.7868 5.146C49.6479 5.146 50.32 5.31402 50.782 5.62906C51.2441 5.94411 51.5591 6.44817 51.7482 7.09926C51.9372 7.77136 52.0212 8.69548 52.0212 9.87165V11.7829H47.7996V11.8249ZM48.1147 7.12027C47.9886 7.28829 47.9046 7.54032 47.8626 7.89737C47.8206 8.25442 47.7996 8.8005 47.7996 9.5356V10.3337H49.6479V9.5356C49.6479 8.8215 49.6269 8.27543 49.5849 7.89737C49.5429 7.51932 49.4379 7.26729 49.3118 7.12027C49.1858 6.97325 48.9758 6.88924 48.7237 6.88924C48.4297 6.86823 48.2407 6.95224 48.1147 7.12027Z" />
  <path d="M2.89546 11.6147L0.0390625 1.26025H2.5384L3.54654 5.9439C3.79858 7.09906 3.9876 8.08619 4.11362 8.90531H4.17663C4.26064 8.31722 4.44967 7.35109 4.74371 5.9649L5.79385 1.26025H8.2932L5.3948 11.6147V16.5714H2.91646V11.6147H2.89546Z" />
  <path d="M22.7439 5.39795V16.5925H20.7696L20.5596 15.2273H20.4966C19.9715 16.2564 19.1524 16.7815 18.0813 16.7815C17.3462 16.7815 16.8001 16.5295 16.443 16.0464C16.086 15.5634 15.918 14.8072 15.918 13.7571V5.39795H18.4383V13.6101C18.4383 14.1142 18.5013 14.4712 18.6063 14.6812C18.7113 14.8913 18.9004 14.9963 19.1524 14.9963C19.3624 14.9963 19.5725 14.9333 19.7825 14.7862C19.9925 14.6602 20.1395 14.4922 20.2236 14.2822V5.39795H22.7439Z" />
  <path d="M35.658 5.39795V16.5925H33.6837L33.4737 15.2273H33.4107C32.8856 16.2564 32.0665 16.7815 30.9953 16.7815C30.2602 16.7815 29.7142 16.5295 29.3571 16.0464C29.0001 15.5634 28.832 14.8072 28.832 13.7571V5.39795H31.3524V13.6101C31.3524 14.1142 31.4154 14.4712 31.5204 14.6812C31.6254 14.8913 31.8144 14.9963 32.0665 14.9963C32.2765 14.9963 32.4865 14.9333 32.6966 14.7862C32.9066 14.6602 33.0536 14.4922 33.1376 14.2822V5.39795H35.658Z" />
  <path d="M29.5888 3.29753H27.0895V16.5714H24.6322V3.29753H22.1328V1.26025H29.5888V3.29753Z" />
  <path d="M43.9978 7.18325C43.8508 6.46915 43.5988 5.96509 43.2627 5.65004C42.9267 5.335 42.4436 5.16698 41.8555 5.16698C41.3935 5.16698 40.9524 5.29299 40.5533 5.56603C40.1543 5.81806 39.8392 6.17511 39.6292 6.59517H39.6082V0.693359H37.1719V16.5715H39.2512L39.5032 15.5214H39.5662C39.7552 15.8995 40.0493 16.1935 40.4483 16.4245C40.8474 16.6346 41.2674 16.7606 41.7505 16.7606C42.6116 16.7606 43.2207 16.3615 43.6198 15.5844C44.0188 14.8073 44.2289 13.5681 44.2289 11.9089V10.1447C44.2079 8.86348 44.1448 7.87635 43.9978 7.18325ZM41.6875 11.7409C41.6875 12.56 41.6455 13.1901 41.5825 13.6521C41.5195 14.1142 41.3935 14.4503 41.2464 14.6393C41.0784 14.8283 40.8684 14.9333 40.6164 14.9333C40.4063 14.9333 40.2173 14.8913 40.0493 14.7863C39.8813 14.6813 39.7342 14.5343 39.6292 14.3452V8.00237C39.7132 7.70832 39.8603 7.45629 40.0703 7.24626C40.2803 7.05724 40.5113 6.95222 40.7424 6.95222C40.9944 6.95222 41.2044 7.05724 41.3305 7.24626C41.4775 7.45629 41.5615 7.79234 41.6245 8.2544C41.6875 8.73747 41.7085 9.40956 41.7085 10.2707V11.7409H41.6875Z" />
</svg>
