<svg width="19" height="13" viewBox="0 0 19 13" fill="none" xmlns="http://www.w3.org/2000/svg">
<path fill-rule="evenodd" clip-rule="evenodd" d="M16.4283 0.387865C17.2251 0.60815 17.8542 1.23702 18.0638 2.03392C18.4517 3.48087 18.4517 6.5 18.4517 6.5C18.4517 6.5 18.4517 9.51958 18.0743 10.9661C17.8542 11.7733 17.2356 12.4027 16.4388 12.6121C14.992 13 9.22586 13 9.22586 13C9.22586 13 3.4597 13 2.02339 12.6121C1.22661 12.3918 0.597564 11.763 0.387921 10.9661C0 9.51958 0 6.5 0 6.5C0 6.5 0 3.48087 0.377447 2.03392C0.597564 1.22666 1.21613 0.597789 2.01292 0.387865C3.4597 0 9.22586 0 9.22586 0C9.22586 0 14.992 0 16.4283 0.387865ZM7.3388 3.75341V9.24704L12.1614 6.5L7.3388 3.75341Z" fill="currentColor"/>
</svg>
